<?xml version="1.0" encoding="utf-8"?>
<!-- Generator: Adobe Illustrator 22.0.0, SVG Export Plug-In . SVG Version: 6.00 Build 0)  -->
<svg version="1.1" id="Capa_1" xmlns="http://www.w3.org/2000/svg" xmlns:xlink="http://www.w3.org/1999/xlink" x="0px" y="0px"
	 viewBox="0 0 104 112" style="enable-background:new 0 0 104 112;" xml:space="preserve">
<style type="text/css">
	.st0{fill:#FFFFFF;}
</style>
<g>
	<path class="st0" d="M52,88.8c-9.1-0.2-18.2-0.8-27.2-2.5c-4.9-0.9-9.8-2-14.4-4c-1.5-0.6-2.8-1.5-4.1-2.4c-0.6-0.4-1-1-1.4-1.6
		c-0.4-0.6-0.5-1.4-0.3-2.2c2.3-9.9,4.5-19.8,6.8-29.6c0.3-1.2,1-2.1,2-2.7c1.7-1.1,3.5-1.6,5.4-2.1c0.5-0.1,0.8-0.3,0.9-0.9
		c1.3-4.9,5.7-8.2,10.9-8c0.3,0,0.5-0.1,0.7-0.3c2.6-4.4,7.5-6.4,12.4-4.9c0.4,0.1,0.6,0,0.8-0.3c3.8-5.2,11.4-5.2,15.3,0
		c0.2,0.3,0.4,0.3,0.7,0.2c4.9-1.4,9.8,0.5,12.4,4.9c0.2,0.3,0.3,0.4,0.7,0.4c5.2-0.2,9.7,3.1,10.9,8.1c0.1,0.4,0.3,0.6,0.7,0.7
		c1.4,0.5,2.9,0.9,4.3,1.5c0.8,0.3,1.5,0.9,2.2,1.4c0.6,0.5,0.9,1.2,1.1,2c2.3,9.8,4.5,19.7,6.8,29.5c0.3,1.1,0,2.1-0.7,3
		c-1,1.3-2.3,2.1-3.7,2.8c-2.9,1.4-6,2.4-9.1,3.2c-6.9,1.8-13.9,2.8-21,3.3C60.7,88.4,56.3,88.6,52,88.8 M13.9,50.2
		c-0.4,1.9-0.8,3.7-1.3,5.6C11.1,62.5,9.5,69.3,7.9,76c-0.2,0.6,0,1.1,0.5,1.4c0.5,0.3,1.1,0.7,1.6,1c2.5,1.3,5.1,2.2,7.8,2.9
		c8.9,2.4,18,3.5,27.2,3.9c9.6,0.4,19.3,0,28.8-1.4c5.6-0.8,11-1.9,16.4-3.8c1.8-0.7,3.7-1.4,5.3-2.6c0.5-0.4,0.7-0.8,0.6-1.5
		c-1.6-6.9-3.2-13.8-4.7-20.7c-0.4-1.7-0.8-3.4-1.2-5.2c-0.1,0-0.2,0-0.3,0.1c-2.4,1.2-5,1.8-7.6,2.3c-6.9,1.4-14,2-21,2.2
		C50,55.2,38.7,55,27.6,53.5c-3.4-0.4-6.8-1-10.1-2C16.3,51.1,15.1,50.6,13.9,50.2 M52,51.7c3.7-0.1,7.5-0.1,11.2-0.4
		c4.6-0.3,9.3-0.8,13.9-1.3c0.2,0,0.4-0.1,0.6-0.2c1.7-1.3,3.1-2.9,3.6-5.1c1-4.6-3-9.7-8.6-8.7c-1.2,0.2-1.8-0.1-2.2-1.2
		c-1.8-4.2-6.2-5.8-10.3-3.9c-1.1,0.5-2,0.2-2.5-0.9c-1.1-2.3-3-3.6-5.6-3.6c-2.6,0-4.5,1.3-5.6,3.6c-0.5,1.1-1.4,1.4-2.5,0.9
		c-4.1-2-8.5-0.3-10.3,3.9c-0.4,1-1.1,1.3-2.2,1.2c-1-0.1-2-0.2-3,0c-3.1,0.6-5.4,3.2-5.8,6.2c-0.4,3.1,1.3,6.2,4.1,7.6
		c0.2,0.1,0.4,0.2,0.6,0.2c0.9,0.1,1.9,0.3,2.8,0.4C37.4,51.3,44.7,51.6,52,51.7 M83.3,49c2-0.5,4.1-1,6-2.3c-1.5-1-3-1.5-4.5-1.9
		C84.3,46.2,83.8,47.6,83.3,49 M14.8,46.7c1.9,1.3,4,1.7,6,2.3c-0.5-1.4-1-2.7-1.5-4.1C17.8,45.2,16.2,45.7,14.8,46.7"/>
	<path class="st0" d="M25.7,68.7c-1-1.3-1.5-2.8-1.5-4.5c-0.1-3.9,2.8-7.3,6.6-7.8c4-0.5,7.7,1.9,8.6,5.7c0.1,0.6,0.4,0.7,0.9,0.7
		c7.8,0,15.6,0,23.4,0c0.5,0,0.8-0.1,0.9-0.7c0.9-3.2,3-5.2,6.3-5.7c3.3-0.5,5.9,0.7,7.7,3.5c1.8,2.8,1.7,5.6,0,8.4
		c-0.2,0.3-0.2,0.5,0,0.8c1.7,2.8,1.8,5.7,0,8.5c-1.8,2.8-4.5,4-7.8,3.4c-3.2-0.6-5.3-2.6-6.2-5.7c0-0.2-0.1-0.3-0.1-0.5
		c0,0,0-0.1-0.1-0.2h-0.6c-7.8,0-15.7,0-23.5,0c-0.5,0-0.7,0.1-0.8,0.6c-0.9,3.2-3,5.2-6.2,5.7c-3.3,0.6-5.9-0.6-7.7-3.4
		c-1.8-2.8-1.7-5.7,0-8.5C25.5,68.9,25.6,68.8,25.7,68.7 M72.1,77.8c1.8,0,3.4-1.1,4.1-2.7c0.7-1.7,0.3-3.6-1-4.9
		c-1.1-1.1-1.1-1.9,0-3c1.4-1.4,1.8-3.6,0.8-5.3c-1-1.8-3-2.7-5-2.2c-1.9,0.5-3.3,2.2-3.4,4.2c0,1.7-0.5,2.2-2.2,2.2c-9,0-18,0-27,0
		c-0.2,0-0.4,0-0.6,0c-0.9-0.1-1.6-0.7-1.6-1.7c0-0.2,0-0.4,0-0.5c-0.1-2-1.5-3.6-3.4-4.1c-1.9-0.5-4,0.4-5,2.2
		c-0.9,1.7-0.6,3.9,0.8,5.3c1.2,1.1,1.2,1.9,0,3c-1.4,1.4-1.8,3.6-0.8,5.4c1,1.7,3,2.6,4.9,2.1c1.9-0.5,3.3-2.2,3.4-4.2
		c0-1.6,0.6-2.1,2.1-2.1c7.6,0,15.2,0,22.8,0c1.5,0,3.1,0,4.6,0c1.1,0,1.8,0.7,1.8,1.8c0,0.1,0,0.2,0,0.4
		C67.8,75.8,69.7,77.8,72.1,77.8"/>
</g>
</svg>
