<?xml version="1.0" encoding="utf-8"?>
<!-- Generator: Adobe Illustrator 22.0.0, SVG Export Plug-In . SVG Version: 6.00 Build 0)  -->
<svg version="1.1" id="Capa_1" xmlns="http://www.w3.org/2000/svg" xmlns:xlink="http://www.w3.org/1999/xlink" x="0px" y="0px"
	 viewBox="0 0 104 112" style="enable-background:new 0 0 104 112;" xml:space="preserve">
<style type="text/css">
	.st0{fill:#FFFFFF;}
</style>
<path class="st0" d="M21.7,5.3h60.9c1,0.5,1.3,1.3,1.3,2.3c0,1.8,0,3.5,0,5.3c0,2.7,0,5.5,0,8.2c0,0.6-0.1,1.5-0.5,1.8
	c-0.8,0.6-0.9,1.4-0.7,2.2c0.3,1,0.6,2,1.1,2.8c2.1,3.4,4.4,6.7,6.6,10c1,1.4,1.4,2.9,1.4,4.6c0,20.6,0,41.1,0,61.7
	c0,2.1-0.5,2.6-2.5,2.6c-24.7,0-49.5,0-74.2,0c-2.1,0-2.6-0.5-2.6-2.5c0-20.6,0-41.2,0-61.8c0-1.6,0.4-3.1,1.3-4.5
	c2.2-3.3,4.5-6.7,6.6-10.1c0.6-0.9,0.9-2.1,1.2-3.2c0.1-0.4,0-1.2-0.3-1.4c-0.9-0.7-0.9-1.5-0.9-2.4c0-4.5,0-8.9,0-13.4
	C20.3,6.5,20.6,5.7,21.7,5.3 M84.8,51c0-2.6,0.1-5.1-0.1-7.5c-0.1-1.1-0.6-2.3-1.1-3.2c-2.1-3.4-4.4-6.8-6.6-10.1
	c-0.9-1.4-1.4-2.9-1.4-4.6c0-2.1-0.5-2.6-2.5-2.6c-14,0-28,0-42,0c-2.1,0-2.6,0.5-2.5,2.6c0,1.7-0.4,3.2-1.4,4.6
	c-2.2,3.3-4.4,6.6-6.6,10c-0.5,0.8-1,1.7-1.1,2.5c-0.1,2.8-0.1,5.5-0.1,8.3H84.8z M19.2,79.4v1.1c0,5.6,0,11.2,0,16.7
	c0,2.1,0.5,2.6,2.6,2.6c20.1,0,40.3,0,60.4,0c2.1,0,2.6-0.5,2.6-2.5c0-5.6,0-11.2,0-16.7v-1.1H19.2z M58.2,67.5c0.7,0,1.5,0,2.2,0
	c0.8,0,1.1-0.3,1.1-1c0-1.2,0-2.4,0-3.6c0-0.8-0.3-1.1-1.1-1.1c-1.5,0-2.9,0-4.4,0c-0.8,0-1.1-0.3-1.1-1.1c0-1.5,0-3,0-4.5
	c0-0.7-0.3-1-1-1c-1.2,0-2.4,0-3.7,0c-0.8,0-1.1,0.3-1,1.1c0,1.5,0,2.9,0,4.4c0,0.9-0.3,1.2-1.2,1.2c-1.5,0-2.9,0-4.4,0
	c-0.7,0-1.1,0.3-1.1,1.1c0,1.2,0,2.4,0,3.7c0,0.7,0.3,1,1,1c1.5,0,3,0,4.5,0c0.8,0,1.1,0.3,1.1,1.1c0,1.5,0,3,0,4.5c0,0.7,0.3,1,1,1
	c1.2,0,2.4,0,3.7,0c0.8,0,1.1-0.3,1-1.1c0-1.5,0-3,0-4.5c0-0.8,0.3-1.1,1.1-1.1C56.7,67.6,57.4,67.5,58.2,67.5 M27.8,14.8
	c0-1.8,0-3.5,0-5.3c0-0.6-0.1-1.2-0.8-1.2c-0.7,0-0.9,0.6-0.9,1.2c0,3.5,0,7,0,10.5c0,0.6,0.1,1.2,0.9,1.2c0.8,0,0.8-0.6,0.8-1.2
	C27.8,18.2,27.8,16.5,27.8,14.8 M37.7,14.8c0-1.7,0-3.5,0-5.3c0-0.6-0.1-1.2-0.8-1.2c-0.7,0-0.9,0.5-0.9,1.2c0,3.5,0,7,0,10.5
	c0,0.6,0.1,1.2,0.9,1.2c0.8,0,0.8-0.6,0.8-1.2C37.7,18.2,37.7,16.5,37.7,14.8 M47.6,14.7c0-1.8,0-3.5,0-5.3c0-0.6-0.2-1.2-0.9-1.2
	c-0.7,0-0.8,0.5-0.8,1.1c0,3.5,0,7.1,0,10.6c0,0.6,0.1,1.1,0.8,1.1c0.8,0,0.9-0.5,0.9-1.2C47.6,18.2,47.6,16.5,47.6,14.7 M57.6,14.7
	c0-1.8,0-3.6,0-5.4c0-0.6-0.2-1.1-0.9-1.1c-0.7,0-0.9,0.5-0.9,1.1c0,3.5,0,7.1,0,10.6c0,0.6,0.2,1.2,0.9,1.1c0.7,0,0.8-0.6,0.8-1.1
	C57.6,18.2,57.6,16.5,57.6,14.7 M67.5,14.7c0-1.7,0-3.4,0-5.2c0-0.6-0.1-1.2-0.8-1.2c-0.7,0-0.9,0.6-0.9,1.2c0,3.5,0,7,0,10.5
	c0,0.6,0.1,1.2,0.9,1.2c0.8,0,0.8-0.6,0.8-1.2C67.5,18.2,67.5,16.4,67.5,14.7 M77.4,14.7c0-1.7,0-3.5,0-5.2c0-0.6-0.1-1.2-0.9-1.2
	c-0.7,0-0.9,0.6-0.9,1.2c0,3.5,0,7,0,10.5c0,0.6,0.1,1.2,0.9,1.2c0.7,0,0.9-0.5,0.9-1.2C77.4,18.2,77.4,16.5,77.4,14.7"/>
</svg>
