<?xml version="1.0" encoding="utf-8"?>
<!-- Generator: Adobe Illustrator 22.0.0, SVG Export Plug-In . SVG Version: 6.00 Build 0)  -->
<svg version="1.1" id="Capa_1" xmlns="http://www.w3.org/2000/svg" xmlns:xlink="http://www.w3.org/1999/xlink" x="0px" y="0px"
	 viewBox="0 0 104 112" style="enable-background:new 0 0 104 112;" xml:space="preserve">
<style type="text/css">
	.st0{fill:#FFFFFF;}
</style>
<path class="st0" d="M76.4,3.1v2c1.1,0,1.8,0.9,1.8,2.1l0,4.3l0,3c0,0.2,0,0.4,0.1,0.5l0,0.1c0.2,0.9,1,1.6,2,1.6H81l4,0h4l5.2,0
	c3.2,0,5.6,2.4,5.6,5.6c0,26,0,52.1,0,78.1c0,3.2-2.4,5.6-5.6,5.6l-39.8,0l-42.7,0c-3.3,0-5.6-2.4-5.6-5.6c0-26,0-52,0-78.1
	c0-3.3,2.3-5.6,5.6-5.6l4.4,0h3.4l3.4,0h0.8c1.1,0,2-0.9,2-2v-1v-1.9l0-1.5c0-1.1,0-2.2,0-3.3c0-1.1,0.8-1.9,1.8-1.9
	c1,0,1.8,0.8,1.8,1.9c0,1.6,0,3.2,0,4.8c0,0.8,0,1.5,0,2.3c0,0.1,0,0.3,0,0.4l0,0.2c0,1.1,0.9,1.9,2,1.9h41.3c1.1,0,2-0.9,2-2V14
	l0-2.1l0-4.8c0-1.2,0.7-2.1,1.8-2.1L76.4,3.1 M76.4,32.2c0.1,0,0.2,0,0.3,0c3.6-0.1,6.6-2.5,7.5-6c0.9-3.4-0.8-6.9-2.9-8
	c-0.3-0.2-0.6-0.3-1-0.3c-0.4,0-0.7,0.1-1,0.3c-0.6,0.4-1,1-1,1.7v0.2v0.4c0,0.4,0,0.8,0,1.2c0,0.9,0,1.7,0,2.6c0,1-0.7,1.7-1.7,1.8
	c-0.1,0-0.1,0-0.2,0c-0.7,0-1.5-0.5-1.7-1.3c-0.1-0.2-0.1-0.5-0.1-0.8c0-1,0-2,0-3l0-1.2c0-0.7-0.4-1.4-1.1-1.8
	c-0.3-0.2-0.6-0.2-0.9-0.2c-0.4,0-0.8,0.1-1.1,0.3c-2.5,1.6-3.6,5.3-2.6,8.5C69.9,29.9,72.9,32.2,76.4,32.2 M27.4,28.1l0-2
	c-1,0-1.8-0.8-1.8-1.9c0-1,0-2,0-2.9l0-1.3c0-0.6-0.3-1.3-0.8-1.6c-0.3-0.2-0.8-0.4-1.2-0.4c-0.2,0-0.4,0-0.6,0.1
	c-2.4,0.8-3.7,4.5-3.4,7.2c0.4,3.7,3.4,6.5,7.2,6.9c0.2,0,0.5,0,0.7,0c3.3,0,6.4-2.2,7.4-5.5c1.1-3.2-0.1-7.1-2.7-8.6
	c-0.3-0.2-0.7-0.3-1-0.3c-0.3,0-0.7,0.1-1,0.3c-0.6,0.4-1,1-1,1.7v0.3v0.4c0,0.4,0,0.8,0,1.2c0,0.8,0,1.7,0,2.5
	c0,1.1-0.8,1.9-1.8,1.9V28.1 M15.2,104.6h0.6h0.6l16.2,0l16.2,0c14.1,0,28.3,0,42.4,0c1.8,0,3.5-0.7,4.7-1.9
	c1.2-1.2,1.9-2.9,1.9-4.7c0-13.7,0-27.7,0-41.2l0-13.4v-0.8c0-1.1-0.9-2-2-2h-86c-1.1,0-2,0.9-2,2V43v0.4V58v39.1
	C7.8,101.5,10.8,104.6,15.2,104.6 M76.4,3.1L76.4,3.1c-2.2,0-3.8,1.7-3.8,4.1c0,2.3,0,4.6,0,6.8v0.6H31.3c0-0.2,0-0.4,0-0.5
	c0-2.4,0-4.7,0-7.1c0-2.2-1.7-3.9-3.8-3.9h0c-2.1,0-3.8,1.7-3.8,3.9c0,1.6,0,3.2,0,4.8v2.9h-0.8c-2.3,0-4.6,0-6.9,0
	c-1.5,0-2.9,0-4.4,0c-4.4,0-7.6,3.2-7.6,7.6c0,26,0,52,0,78.1c0,4.4,3.3,7.6,7.6,7.6c14.2,0,28.4,0,42.7,0c13.3,0,26.5,0,39.8,0
	c4.4,0,7.6-3.2,7.6-7.6c0-26,0-52.1,0-78.1c0-4.4-3.2-7.6-7.6-7.6c-1.7,0-3.4,0-5.2,0c-2.6,0-5.3,0-7.9,0h-0.7c0-0.1,0-0.2,0-0.2
	c0-2.4,0-4.8,0-7.3C80.2,4.9,78.6,3.1,76.4,3.1 M72.6,19.9c0,1.4,0,2.8,0,4.2c0,0.5,0.1,0.9,0.2,1.4c0.5,1.6,2,2.7,3.6,2.7
	c0.2,0,0.3,0,0.5,0c2-0.3,3.4-1.8,3.4-3.8c0-1.3,0-2.6,0-3.8v-0.6c1.3,0.7,2.6,3.3,1.9,5.8c-0.7,2.6-2.9,4.4-5.6,4.5
	c-0.1,0-0.1,0-0.2,0c-2.5,0-4.8-1.7-5.6-4.1C70,23.8,70.8,21,72.6,19.9 M27.4,28.1c2.1,0,3.8-1.7,3.8-3.8c0-1.2,0-2.5,0-3.7v-0.7
	c1.7,1,2.5,4,1.8,6.2c-0.8,2.4-3.1,4.1-5.5,4.1c-0.2,0-0.4,0-0.5,0c-2.9-0.3-5.1-2.4-5.5-5.1c-0.2-2.1,0.8-4.7,2.1-5.1
	c0,1.4,0,2.9,0,4.3C23.6,26.4,25.2,28.1,27.4,28.1L27.4,28.1z M16.4,102.6h-1.2c-3.3,0-5.5-2.1-5.5-5.5c0-17.9,0-35.8,0-53.7v-0.8
	h86v0.8c0,18.2,0,36.4,0,54.6c0,2.7-2,4.6-4.6,4.6h0c-14.1,0-28.3,0-42.4,0C38,102.6,27.2,102.6,16.4,102.6"/>
<path class="st0" d="M79,68.4c1.2,0,2.4,0,3.5,0c0.2,0,0.2,0,0.3,0c0,0,0,0,0,0c0,0,0,0.1,0,0.3c0,2.4,0,4.7,0,7.1
	c0,0.2,0,0.3,0,0.3c0,0,0,0,0,0c0,0-0.1,0-0.3,0c-0.4,0-0.9,0-1.4,0l-1.1,0l-1.1,0l-1.1,0l-1.1,0c-0.4,0-0.9,0-1.3,0
	c-0.2,0-0.3,0-0.3,0c0,0,0,0,0,0c0,0,0-0.1,0-0.3c0-2.4,0-4.7,0-7.1c0-0.2,0-0.2,0-0.3c0,0,0.1,0,0.3,0C76.7,68.4,77.8,68.4,79,68.4
	 M79,66.4c-1.2,0-2.4,0-3.5,0c-1.4,0-2.3,0.9-2.3,2.3c0,2.4,0,4.7,0,7.1c0,1.4,0.9,2.3,2.3,2.3c0.5,0,0.9,0,1.4,0c0.7,0,1.4,0,2.2,0
	h0c0.7,0,1.4,0,2.2,0c0.5,0,0.9,0,1.4,0c1.4,0,2.3-0.9,2.3-2.3c0-2.4,0-4.7,0-7.1c0-1.4-0.9-2.3-2.3-2.3
	C81.4,66.4,80.2,66.4,79,66.4"/>
<path class="st0" d="M79,50.9c1.2,0,2.4,0,3.6,0c0.1,0,0.2,0,0.2,0c0,0,0,0.1,0,0.2c0,2.4,0,4.9,0,7.3c0,0.1,0,0.1,0,0.1h0
	c0,0-0.1,0-0.2,0c-1.2,0-2.4,0-3.6,0c-1.2,0-2.4,0-3.5,0c-0.1,0-0.2,0-0.2,0c0,0,0,0,0,0c0,0,0-0.1,0-0.3c0-0.8,0-1.6,0-2.4l0-1.1
	l0-1.1c0-0.8,0-1.6,0-2.4c0-0.2,0-0.3,0-0.3c0,0,0.1,0,0.2,0C76.6,50.9,77.8,50.9,79,50.9 M82.9,58.6L82.9,58.6L82.9,58.6 M79,48.9
	c-1.2,0-2.4,0-3.6,0c-1.4,0-2.2,0.9-2.2,2.3c0,1.2,0,2.4,0,3.5c0,1.2,0,2.4,0,3.5c0,1.4,0.9,2.3,2.2,2.3c1.2,0,2.4,0,3.6,0
	c1.2,0,2.4,0,3.7,0c1.3,0,2.2-0.8,2.2-2.2c0-2.4,0-4.9,0-7.3c0-1.3-0.9-2.2-2.2-2.2C81.4,48.9,80.2,48.9,79,48.9"/>
<path class="st0" d="M61.5,50.9c1.2,0,2.5,0,3.7,0c0.1,0,0.1,0,0.1,0h0c0,0,0,0,0,0.1c0,2.4,0,4.8,0,7.4c0,0.1,0,0.1,0,0.1
	c0,0-0.1,0-0.1,0c-1.2,0-2.4,0-3.7,0c-1.2,0-2.5,0-3.7,0c-0.1,0-0.1,0-0.1,0c0,0,0,0,0,0c0,0,0-0.1,0-0.2c0-0.8,0-1.7,0-2.5l0-1.1
	l0-1.1c0-0.8,0-1.6,0-2.5c0-0.1,0-0.2,0-0.2c0,0,0,0,0.1,0C59.1,50.9,60.3,50.9,61.5,50.9 M65.4,58.6L65.4,58.6L65.4,58.6
	 M61.5,48.9c-1.2,0-2.4,0-3.7,0c-1.3,0-2.1,0.9-2.1,2.2c0,1.2,0,2.4,0,3.6c0,1.2,0,2.4,0,3.6c0,1.3,0.8,2.2,2.1,2.2
	c1.2,0,2.5,0,3.7,0c1.2,0,2.5,0,3.7,0c1.3,0,2.1-0.9,2.1-2.1c0-2.5,0-4.9,0-7.4c0-1.2-0.9-2.1-2.1-2.1C64,48.9,62.7,48.9,61.5,48.9"
	/>
<path class="st0" d="M26.5,50.9c1.2,0,2.4,0,3.5,0c0.1,0,0.2,0,0.3,0c0,0,0,0.1,0,0.3c0,0.8,0,1.6,0,2.5v1.1l0,1.1
	c0,0.8,0,1.6,0,2.4c0,0.1,0,0.2,0,0.2c0,0-0.1,0-0.2,0c-1.2,0-2.3,0-3.5,0c-1.2,0-2.4,0-3.7,0c-0.1,0-0.2,0-0.2,0c0,0,0-0.1,0-0.2
	c0-2.3,0-4.7,0-7.2c0-0.1,0-0.2,0-0.2h0c0,0,0.1,0,0.3,0C24.2,50.9,25.4,50.9,26.5,50.9 M30.4,58.6L30.4,58.6L30.4,58.6 M26.5,48.9
	c-1.2,0-2.4,0-3.5,0c-1.4,0-2.3,0.9-2.3,2.2c0,2.4,0,4.8,0,7.2c0,1.4,0.9,2.2,2.2,2.2c1.2,0,2.4,0,3.7,0c1.2,0,2.4,0,3.5,0
	c1.3,0,2.2-0.9,2.2-2.2c0-1.2,0-2.4,0-3.5c0-1.2,0-2.4,0-3.5c0-1.5-0.9-2.3-2.3-2.3C28.9,48.9,27.7,48.9,26.5,48.9"/>
<path class="st0" d="M61.5,68.4c1.2,0,2.4,0,3.6,0c0.1,0,0.2,0,0.2,0c0,0,0,0,0,0c0,0,0,0.1,0,0.3v0.1v3.4l0,1.1c0,0.8,0,1.6,0,2.4
	c0,0.1,0,0.2,0,0.3c0,0-0.1,0-0.2,0c-1.2,0-2.3,0-3.5,0c-1.2,0-2.4,0-3.6,0c-0.1,0-0.2,0-0.3,0c0,0,0-0.1,0-0.3c0-2.3,0-4.7,0-7
	c0-0.2,0-0.3,0-0.3c0,0,0.1,0,0.3,0C59.1,68.4,60.3,68.4,61.5,68.4 M61.5,66.4c-1.2,0-2.3,0-3.5,0c-1.4,0-2.3,0.9-2.3,2.3
	c0,2.3,0,4.7,0,7c0,1.5,0.8,2.3,2.3,2.3c1.2,0,2.4,0,3.6,0c1.2,0,2.3,0,3.5,0c1.4,0,2.3-0.9,2.3-2.3c0-1.2,0-2.4,0-3.5
	c0-1.1,0-2.3,0-3.4c0,0,0-0.1,0-0.1c0-1.4-0.9-2.3-2.3-2.3C63.9,66.4,62.7,66.4,61.5,66.4"/>
<path class="st0" d="M44.1,50.9c1.2,0,2.4,0,3.6,0c0.1,0,0.2,0,0.2,0h0c0,0,0,0.1,0,0.2c0,2.4,0,4.8,0,7.2c0,0.1,0,0.2,0,0.2h0
	c0,0-0.1,0-0.2,0c-1.2,0-2.4,0-3.7,0c-1.2,0-2.4,0-3.6,0c-0.1,0-0.1,0-0.1,0c0,0,0,0,0,0c0,0,0-0.1,0-0.2c0-0.8,0-1.7,0-2.5l0-1.1
	l0-1.1c0-0.8,0-1.7,0-2.5c0-0.1,0-0.2,0-0.2c0,0,0.1,0,0.2,0C41.7,50.9,42.9,50.9,44.1,50.9 M47.9,58.6L47.9,58.6L47.9,58.6
	 M44.1,48.9c-1.2,0-2.4,0-3.6,0c-1.3,0-2.2,0.9-2.2,2.2c0,1.2,0,2.4,0,3.6s0,2.4,0,3.6c0,1.3,0.8,2.2,2.2,2.2c1.2,0,2.4,0,3.7,0
	c1.2,0,2.4,0,3.7,0c1.3,0,2.2-0.9,2.2-2.2c0-2.4,0-4.8,0-7.2c0-1.3-0.9-2.2-2.2-2.2C46.4,48.9,45.3,48.9,44.1,48.9"/>
<path class="st0" d="M26.5,68.4c1.2,0,2.4,0,3.6,0c0.1,0,0.2,0,0.2,0c0,0,0,0,0,0c0,0,0,0.1,0,0.3c0,0.8,0,1.7,0,2.5v1.1l0,1.1
	c0,0.8,0,1.6,0,2.4c0,0.1,0,0.2,0,0.2c0,0-0.1,0-0.2,0c-1.2,0-2.4,0-3.6,0c-1.2,0-2.4,0-3.7,0c-0.1,0-0.1,0-0.1,0c0,0,0,0,0,0
	c0,0,0-0.1,0-0.2c0-2.4,0-4.8,0-7.3c0-0.1,0-0.2,0-0.2h0c0,0,0.1,0,0.2,0C24.1,68.4,25.3,68.4,26.5,68.4 M30.4,76L30.4,76L30.4,76
	 M26.5,66.4c-1.2,0-2.4,0-3.6,0c-1.3,0-2.2,0.9-2.2,2.2c0,2.4,0,4.9,0,7.3c0,1.3,0.9,2.1,2.2,2.2c1.2,0,2.5,0,3.7,0
	c1.2,0,2.4,0,3.6,0c1.3,0,2.1-0.9,2.2-2.2c0-1.2,0-2.4,0-3.5c0-1.2,0-2.4,0-3.6c0-1.4-0.9-2.3-2.2-2.3
	C28.9,66.4,27.7,66.4,26.5,66.4"/>
<path class="st0" d="M61.5,86.5c1.2,0,2.4,0,3.6,0c0.1,0,0.2,0,0.2,0c0,0,0,0.1,0,0.2c0,2.3,0,4.7,0,7.1c0,0.1,0,0.2,0,0.2
	c0,0-0.1,0-0.3,0H65h-3.4l-1.1,0l-1.1,0c-0.5,0-0.9,0-1.4,0c-0.1,0-0.2,0-0.3,0c0,0,0-0.1,0-0.3c0-2.4,0-4.7,0-7.1
	c0-0.2,0-0.2,0-0.2c0,0,0.1,0,0.2,0C59.1,86.5,60.3,86.5,61.5,86.5 M61.5,84.5c-1.2,0-2.3,0-3.5,0c-1.4,0-2.2,0.9-2.2,2.3
	c0,2.4,0,4.7,0,7.1c0,1.4,0.8,2.3,2.3,2.3c0.5,0,0.9,0,1.4,0c0.7,0,1.5,0,2.2,0h0H65h0c0,0,0.1,0,0.1,0c1.4,0,2.2-0.9,2.2-2.3
	c0-2.4,0-4.8,0-7.1c0-1.4-0.9-2.2-2.3-2.2C63.9,84.5,62.7,84.5,61.5,84.5"/>
<path class="st0" d="M26.5,86.5c1.2,0,2.4,0,3.6,0c0.1,0,0.2,0,0.2,0c0,0,0,0,0,0c0,0,0,0.1,0,0.3c0,0.8,0,1.6,0,2.5l0,1.1l0,1.1
	c0,0.8,0,1.7,0,2.5c0,0.1,0,0.2,0,0.2c0,0-0.1,0-0.1,0c-1.2,0-2.4,0-3.7,0c-1.2,0-2.5,0-3.7,0c-0.1,0-0.1,0-0.1,0c0,0,0-0.1,0-0.2
	c0-2.4,0-4.8,0-7.2c0-0.1,0-0.2,0-0.2c0,0,0,0,0,0c0,0,0.1,0,0.2,0C24.2,86.5,25.4,86.5,26.5,86.5 M30.4,94.1L30.4,94.1L30.4,94.1
	 M26.5,84.5c-1.2,0-2.4,0-3.6,0c-1.4,0-2.2,0.9-2.2,2.2c0,2.4,0,4.8,0,7.3c0,1.3,0.9,2.2,2.1,2.2c1.2,0,2.5,0,3.7,0
	c1.2,0,2.5,0,3.7,0c1.3,0,2.1-0.9,2.1-2.2c0-1.2,0-2.4,0-3.6c0-1.2,0-2.4,0-3.5c0-1.4-0.9-2.3-2.3-2.3
	C28.9,84.5,27.7,84.5,26.5,84.5"/>
<path class="st0" d="M40.3,68.4L40.3,68.4L40.3,68.4 M44,68.4c1.2,0,2.4,0,3.6,0c0.1,0,0.2,0,0.2,0c0,0,0,0.1,0,0.2
	c0,2.4,0,4.8,0,7.2c0,0.1,0,0.2,0,0.2h0c0,0-0.1,0-0.2,0c-1.2,0-2.4,0-3.6,0c-1.2,0-2.4,0-3.6,0c-0.1,0-0.2,0-0.2,0c0,0,0,0,0,0
	c0,0,0-0.1,0-0.2v-0.1v-3.5l0-1.1c0-0.8,0-1.6,0-2.5c0-0.1,0-0.2,0-0.2c0,0,0.1,0,0.2,0C41.6,68.4,42.8,68.4,44,68.4 M47.9,76
	L47.9,76L47.9,76 M44,66.4c-1.2,0-2.4,0-3.6,0c-1.4,0-2.2,0.9-2.2,2.2c0,1.2,0,2.4,0,3.6v3.5c0,0,0,0.1,0,0.1c0,1.3,0.9,2.2,2.2,2.2
	c1.2,0,2.4,0,3.6,0c1.2,0,2.4,0,3.6,0c1.3,0,2.2-0.9,2.2-2.2c0-2.4,0-4.8,0-7.2c0-1.4-0.9-2.2-2.2-2.2C46.4,66.4,45.2,66.4,44,66.4"
	/>
<path class="st0" d="M44,86.5c1.2,0,2.4,0,3.6,0c0.1,0,0.1,0,0.1,0h0c0,0,0,0.1,0,0.2c0,0.8,0,1.7,0,2.5l0,1.1l0,1.1
	c0,0.8,0,1.7,0,2.5c0,0.1,0,0.2,0,0.2h0c0,0-0.1,0-0.1,0c-1.2,0-2.5,0-3.7,0c-1.2,0-2.5,0-3.7,0c0,0-0.1,0-0.1,0c0,0,0,0,0,0
	c0,0,0-0.1,0-0.2c0-2.4,0-4.9,0-7.3c0-0.1,0-0.1,0-0.1c0,0,0.1,0,0.1,0C41.6,86.5,42.8,86.5,44,86.5 M47.9,94.1L47.9,94.1L47.9,94.1
	 M44,84.5c-1.2,0-2.4,0-3.7,0c-1.3,0-2.1,0.9-2.2,2.2c0,2.4,0,4.9,0,7.3c0,1.3,0.8,2.1,2.1,2.1c1.2,0,2.5,0,3.7,0c1.2,0,2.5,0,3.7,0
	c1.2,0,2.1-0.9,2.1-2.1c0-1.2,0-2.4,0-3.7c0-1.2,0-2.4,0-3.7c0-1.3-0.9-2.1-2.2-2.2C46.5,84.5,45.3,84.5,44,84.5"/>
</svg>
