<?xml version="1.0" encoding="utf-8"?>
<!-- Generator: Adobe Illustrator 22.0.0, SVG Export Plug-In . SVG Version: 6.00 Build 0)  -->
<svg version="1.1" id="Capa_1" xmlns="http://www.w3.org/2000/svg" xmlns:xlink="http://www.w3.org/1999/xlink" x="0px" y="0px"
	 viewBox="0 0 104 112" style="enable-background:new 0 0 104 112;" xml:space="preserve">
<style type="text/css">
	.st0{fill:#FFFFFF;}
</style>
<path class="st0" d="M66.7,41.4c3.5,0,6.1,1.3,8.2,4.2c0.4,0.5,0.7,1,1.1,1.5C75.7,47,75.4,47,75.2,47c-0.2,0-0.4,0-0.6,0.1
	c-1.3,0.4-2.7,0.8-4,1.2c-3,0.9-5.8,1.7-8.5,3c-2.8,1.3-5.6,1.9-8.4,1.9c-2.9,0-5.8-0.7-8.9-2C42,50,39,49.1,36.1,48.3
	c-1.3-0.4-2.6-0.8-3.9-1.2C32,47,31.8,47,31.6,47c-0.2,0-0.3,0-0.5,0.1c0.4-0.5,0.7-1,1.1-1.5c2.1-2.8,4.7-4.2,8.2-4.2l0.1,0
	c4.4,0,8.8,0,13.1,0c4.3,0,8.7,0,13,0L66.7,41.4 M77.1,48.8c3.3,4.6,6.7,9.2,10,13.7c2.6,3.6,5.3,7.2,7.9,10.8
	c2.8,3.9,1.8,6.3,0.8,7.8c-1.1,1.7-2.7,2.5-4.8,2.5c-0.9,0-1.8-0.1-2.8-0.4c-2.8-0.8-5.5-1.5-8.4-2.3c-1.3-0.4-2.6-0.7-3.9-1.1
	c-0.2,0-0.4-0.1-0.5-0.1c-0.4,0-0.9,0.1-1.2,0.4c-0.5,0.4-0.8,1-0.8,1.6v10.3H33.7V81.8c0-0.6-0.3-1.2-0.8-1.6
	c-0.4-0.3-0.8-0.4-1.2-0.4c-0.2,0-0.4,0-0.5,0.1l-4,1.1c-2.8,0.8-5.5,1.5-8.2,2.2c-1.1,0.3-2.2,0.5-3.1,0.5c-2,0-3.5-0.7-4.6-2.3
	c-1.3-1.8-2.1-4.1,0.7-8.1c2.9-4,5.8-8,8.7-12c2.9-4,5.9-8.1,8.9-12.3v16.4c0,0.6,0.3,1.1,0.7,1.5c0.4,0.3,0.8,0.5,1.3,0.5
	c0.1,0,0.2,0,0.3,0c1.6-0.2,2.9-0.3,4-0.3c4.1,0,4.9,1.4,5.4,2.7c0.5,1.6,0.5,3.8-0.1,5c-0.4,0.9-1.5,1.8-2.7,2.7
	c-0.6,0.5-1.2,1-1.8,1.5c-0.5,0.5-0.7,1.2-0.6,1.9c0.2,0.7,0.7,1.2,1.3,1.5c1.2,0.4,2.3,0.8,3.5,1.1c3.3,1.1,6.7,2.2,10.1,3.3
	c1.1,0.3,1.9,0.5,2.7,0.5c0.5,0,1-0.1,1.4-0.2c3.6-1.1,7.1-2.3,10.8-3.6c1.3-0.4,2.5-0.9,3.8-1.3c0.7-0.2,1.3-0.9,1.3-1.7
	c0.1-0.8-0.3-1.5-0.9-1.9c-5.9-3.7-5.9-5.5-5-7.9c0.9-2.8,2.5-3.9,5.3-3.9c1.4,0,3,0.3,4.2,0.5c0.1,0,0.3,0,0.4,0
	c0.5,0,0.9-0.2,1.3-0.5c0.5-0.4,0.7-0.9,0.7-1.5V49C77.2,48.9,77.1,48.9,77.1,48.8 M66.7,39.4c0,0-0.1,0-0.1,0c-4.3,0-8.6,0-13,0
	c-4.4,0-8.7,0-13.1,0c0,0-0.1,0-0.1,0c-4.2,0-7.4,1.6-9.8,5c-6.7,9.3-13.5,18.5-20.2,27.7c-2.8,3.9-3,7.2-0.7,10.4
	c1.5,2.1,3.6,3.2,6.2,3.2c1.1,0,2.3-0.2,3.6-0.5c3.9-1.1,7.9-2.1,12.2-3.3v12.3h43.6V81.8c4.3,1.2,8.4,2.3,12.4,3.4
	c1.2,0.3,2.3,0.5,3.3,0.5c2.8,0,5-1.1,6.5-3.4c2.1-3.1,1.8-6.5-0.8-10.1C89.9,63,83.2,53.7,76.5,44.5C74,41.1,70.8,39.4,66.7,39.4
	 M31.6,65.5V49c4.3,1.4,8.5,2.3,12.3,4.1c3.3,1.4,6.5,2.2,9.7,2.2c3,0,6.1-0.7,9.2-2.1c3.8-1.7,8-2.7,12.3-4.1v16.5
	c-1.6-0.3-3.1-0.6-4.6-0.6c-3.2,0-5.8,1.2-7.2,5.3c-1.4,4.1,0.1,6.6,5.9,10.2c-5,1.7-9.8,3.4-14.6,4.8c-0.3,0.1-0.6,0.1-0.8,0.1
	c-0.7,0-1.5-0.2-2.1-0.4c-4.6-1.4-9.1-2.9-13.6-4.4c1.7-1.6,4-2.9,4.9-4.9c0.9-1.8,0.9-4.5,0.2-6.5c-0.9-2.8-3.2-4.1-7.3-4.1
	C34.6,65.1,33.2,65.2,31.6,65.5"/>
<path class="st0" d="M53.9,9.8L53.9,9.8l0.1,0c6.7,0.1,11.7,5.3,11.7,12.1c0,6.7-5.3,11.9-11.9,11.9c-3.3,0-6.4-1.3-8.6-3.6
	c-2.3-2.3-3.5-5.3-3.4-8.5C41.8,14.9,47.1,9.8,53.9,9.8 M53.9,7.8c-7.9,0-14,6-14.2,13.9c-0.1,7.8,6.2,14.2,14.1,14.2h0
	c7.8,0,13.9-6.1,13.9-13.9c0-7.9-5.9-14-13.7-14.1C54,7.8,54,7.8,53.9,7.8"/>
<path class="st0" d="M97.2,103.9c-0.2,0-0.5,0-0.7,0c-0.3,0-0.5,0-0.8,0c0,0-73.1,0-83.1,0c-0.3,0-0.5,0-0.8,0c-0.2,0-0.5,0-0.7,0
	c-0.5,0-0.8-0.1-1.1-0.2c-0.6-0.2-1.2-1-1.3-1.6c0-0.2,0.6-0.9,1.2-1.2c0.3-0.1,0.6-0.2,1-0.2c0.2,0,0.4,0,0.6,0c0.2,0,0.4,0,0.6,0
	c21,0,42.1,0,63.1,0h21c0.2,0,0.4,0,0.6,0c0.2,0,0.3,0,0.5,0c0.2,0,0.3,0,0.4,0.1c0.6,0.3,1,0.8,1.6,1.3c0.1,0.1,0.2,0.2,0.3,0.3
	c-0.1,0.1-0.2,0.2-0.3,0.3c-0.5,0.4-0.9,0.8-1.4,1.1C97.8,103.8,97.5,103.9,97.2,103.9"/>
<path class="st0" d="M97.4,101.1c0.2,0,0.2,0,0.2,0c0.5,0.3,1,0.8,1.5,1.2c0,0,0,0,0,0c0,0,0,0,0,0c-0.4,0.4-0.8,0.8-1.3,1
	c-0.2,0.1-0.4,0.1-0.6,0.1c-0.2,0-0.4,0-0.7,0c-0.3,0-0.5,0-0.8,0l-25.5,0l-11.2,0h-4.5l-8.1,0h-8.1c-8.6,0-17.2,0-25.8,0
	c-0.3,0-0.5,0-0.8,0c-0.2,0-0.5,0-0.7,0c-0.4,0-0.7,0-0.9-0.1c-0.4-0.2-0.9-0.8-1-1.2c0.1-0.2,0.6-0.7,0.9-0.9
	c0.2-0.1,0.5-0.1,0.9-0.1c0.2,0,0.4,0,0.6,0c0.2,0,0.4,0,0.6,0c18.1,0,36.2,0,54.3,0h29.8c0.2,0,0.4,0,0.6,0
	C97,101.1,97.2,101.1,97.4,101.1 M97.4,100.3c-0.3,0-0.7,0.1-1.1,0.1H66.4c-18.1,0-36.2,0-54.3,0h0c-0.4,0-0.8,0-1.2,0
	c-0.4,0-0.8,0-1.2,0.2c-0.6,0.3-1.5,1.1-1.4,1.6c0.1,0.7,0.8,1.6,1.5,1.8c0.4,0.2,0.8,0.2,1.2,0.2c0.5,0,1-0.1,1.5-0.1h0
	c8.6,0,17.2,0,25.8,0c5.4,0,10.7,0,16.1,0c5.2,0,10.5,0,15.7,0c8.5,0,17,0,25.5,0h0c0.5,0,1,0.1,1.5,0.1c0.3,0,0.6,0,0.9-0.2
	c0.8-0.3,1.4-1.1,2.1-1.7c-0.7-0.7-1.4-1.4-2.3-1.9C97.8,100.4,97.6,100.3,97.4,100.3"/>
</svg>
