<?xml version="1.0" encoding="utf-8"?>
<!-- Generator: Adobe Illustrator 22.0.0, SVG Export Plug-In . SVG Version: 6.00 Build 0)  -->
<svg version="1.1" id="Capa_1" xmlns="http://www.w3.org/2000/svg" xmlns:xlink="http://www.w3.org/1999/xlink" x="0px" y="0px"
	 viewBox="0 0 104 112" style="enable-background:new 0 0 104 112;" xml:space="preserve">
<style type="text/css">
	.st0{fill:#FFFFFF;}
</style>
<path class="st0" d="M42,109.8c-3-0.5-5-2.1-5.8-5.2c-0.2-0.7-0.1-1.5-0.1-2.3c0-13.2,0-26.5,0-39.7c0-0.7-0.1-1-0.8-1.3
	c-3.5-1.2-4.7-5.6-2.3-8.4c0.4-0.4,0.8-0.8,1.2-1.3c-0.2-0.2-0.4-0.4-0.6-0.6c-3,1.7-4.9,1.6-7.5-0.7c-4-3.6-7.9-7.3-11.8-11
	c-2.1-2.1-2.2-5.4-0.2-7.5c2.1-2.2,5.3-2.4,7.5-0.3c2.8,2.5,5.5,5.1,8.3,7.7c2.4-2.6,4.9-5.2,7.3-7.9c3-3.3,6.6-5.5,11-6.3
	c3.5-0.6,6.7,0.3,9.8,1.8c2.1,1.1,4.1,2.5,5.4,4.5c0.9,1.4,1.4,2.9,1.4,4.5c0,12.7,0,25.4,0,38.1c0,0.9,0.2,1.6,0.9,2.2
	c0.6,0.5,1.1,1.2,1.6,1.7c1.6-0.6,3-1.3,4.5-1.7c4.6-1.2,8.7,0,12.1,3.2c3.9,3.7,7.6,7.6,11.4,11.3c0.9,0.9,0.9,1.2,0.1,2
	c-5.4,5.4-10.9,10.8-16.3,16.3c-0.9,0.9-1.2,0.9-2.1,0c-4-4-7.9-7.9-12.1-12.1c0,1.6,0,3,0,4.3c0,1.3,0.1,2.6-0.3,3.9
	c-0.7,2.8-2.8,4.3-5.6,4.8h-1.5c-1-0.4-2.2-0.7-3.1-1.4c-2.1-1.4-2.7-3.6-2.7-6c0-9.1,0-18.3,0-27.4v-1.3h-2.4v1.1
	c0,9.5,0,19,0,28.6c0,1-0.3,2-0.7,2.9c-1,2.1-2.9,3.1-5.1,3.5H42z M39.7,106.9c0.7,0.5,2.1,1,2.9,1c2.5,0,4.6-2,4.6-4.5
	c0-2.1,0-4.1,0-6.2c0-8,0-16,0-24c0-1.4,0.2-1.6,1.7-1.6c1,0,2,0,2.9,0c1.3-0.1,1.6,0.2,1.6,1.4c0,6.9,0,13.7,0,20.6
	c0,3.3-0.1,6.7,0.1,10c0.2,2.7,2.4,4.4,5,4.2c2.4-0.2,4.2-2.3,4.2-4.9c0-2.8,0-5.6,0-8.4c0-0.6-0.1-1.2-0.3-1.7
	c-0.6-2-0.9-4-0.6-6.1c0.3-1.8,1.2-3.6,0.9-5.5c-0.1-0.7-0.2-1.3-0.8-1.8c-6.5-6.5-13-13-19.5-19.5c-0.2-0.2-0.5-0.5-0.6-0.6
	c-1.4,0.9-2.6,1.7-4,2.6v0.3c0,13.4,0,26.8,0,40.3c0,0.5,0,0.9,0,1.4C38.1,105.1,38.7,106,39.7,106.9 M62.8,37.3
	C56.8,43.5,51,49.6,45.4,55.5c5.9,5.9,11.7,11.7,17.4,17.4V37.3z M93.2,91.9c-2.9-2.9-5.7-5.7-8.5-8.5c-5.1,5.1-10.3,10.2-15.3,15.3
	c2.8,2.8,5.7,5.7,8.5,8.5C83,102.2,88.2,97,93.2,91.9 M62.2,34.1C62.1,34.1,62,34,62,34c0-2.2-1.8-3.8-4-3.5
	c-1.1,0.1-1.9,0.9-2.6,1.6c-5.5,5.8-11,11.5-16.6,17.3c-1.4,1.4-2.8,2.9-4.1,4.3c-0.8,0.9-1.3,1.9-1.1,3.1c0.5,2.7,3.5,3.8,5.7,2.1
	c0.8-0.6,1.4-1.4,2.1-2.2c6.4-6.7,12.9-13.4,19.3-20.2C61.4,36,61.7,35,62.2,34.1 M57.2,28.7c0-0.1,0-0.3,0-0.4
	c-1.8-0.5-3.6-1.3-5.5-1.5c-4.2-0.5-7.9,1.1-11.1,3.7c-1.8,1.5-2.8,3.3-2.7,5.8c0.1,2.9,0,5.9,0,8.8v2.5c4.9-5.1,9.6-10.1,14.4-15.1
	C53.8,31.1,55,29.3,57.2,28.7 M81.1,79.8c-3.7-3.1-10.2-2.8-13.9,0.7c-4.2,4.1-4.8,10.4-1.5,14.6C70.9,90,76,84.9,81.1,79.8
	 M24.3,36.6c-1.2-1.1-2.3-2.2-3.5-3.3c-0.1-0.1-0.3-0.2-0.4-0.3c-1.7-1.3-3.8-1.3-5.1,0.1c-1.4,1.5-1.2,3.6,0.4,5.1
	c3,2.8,6,5.6,9,8.4c1.1,1,2.2,2.1,3.4,3c1.2,0.9,2.8,0.9,4.1-0.2c-0.3-0.2-0.6-0.4-0.9-0.6c-2.6-2.5-5.1-5.1-7.6-7.6
	C22.1,39.5,22.3,37.8,24.3,36.6 M65.9,79.1c-7.4-7.4-14.7-14.7-22-22c-0.2,0.2-0.4,0.5-0.6,0.6c7.4,7.3,14.7,14.6,22,22
	C65.4,79.6,65.6,79.4,65.9,79.1 M36,35.3c-1.9,2.1-3.7,3.9-5.1,5.5c1.8,1.8,3.5,3.6,5.1,5.2V35.3z M82.9,81.2
	c-5.2,5.2-10.4,10.4-15.7,15.6c0.2,0.2,0.4,0.4,0.5,0.5c5.3-5.2,10.4-10.4,15.7-15.6C83.2,81.5,83,81.3,82.9,81.2 M36.3,49.3
	c-3.5-3.5-6.9-6.9-10.3-10.3c-0.1-0.1-0.3-0.4-0.5-0.4c-0.3-0.1-0.6,0-0.9,0.1c0,0.3,0,0.5,0.1,0.8c0.1,0.2,0.3,0.3,0.4,0.5
	c3.2,3.2,6.5,6.5,9.7,9.7c0.2,0.2,0.4,0.3,0.6,0.5C35.8,49.9,36,49.7,36.3,49.3"/>
<path class="st0" d="M39.7,12.9c0-5.8,4.8-10.7,10.7-10.7c5.9,0,10.8,4.9,10.8,10.8c0,5.9-5.1,10.8-11,10.7
	C44.4,23.5,39.6,18.7,39.7,12.9 M41.5,12.8c0,4.9,3.8,8.9,8.8,8.9c4.9,0,8.9-3.9,8.9-8.8c0-4.8-4-8.9-8.9-8.9
	C45.5,4,41.6,8,41.5,12.8"/>
</svg>
