<?xml version="1.0" encoding="utf-8"?>
<!-- Generator: Adobe Illustrator 22.0.0, SVG Export Plug-In . SVG Version: 6.00 Build 0)  -->
<svg version="1.1" id="Capa_1" xmlns="http://www.w3.org/2000/svg" xmlns:xlink="http://www.w3.org/1999/xlink" x="0px" y="0px"
	 viewBox="0 0 104 112" style="enable-background:new 0 0 104 112;" xml:space="preserve">
<style type="text/css">
	.st0{fill:none;stroke:#FFFFFF;stroke-width:2.389;stroke-miterlimit:10;}
</style>
<g>
	<path class="st0" d="M99.2,92.4c-0.6,1.8-1.9,2.4-3.8,2.4c-29,0-58.1,0-87.1,0c-2,0-3.2-0.7-3.6-2.2c-0.4-1.7,0.6-3.4,2.3-3.7
		c0.4,0,0.9-0.1,1.4-0.1c29,0,57.9,0,86.9,0c1.8,0,3.2,0.5,3.8,2.3L99.2,92.4L99.2,92.4z"/>
	<path class="st0" d="M15.1,49.4h15.5v29.5h13.5V49.4h15.5v29.5h13.5V49.4h15.5V79c1.7,0.1,3.6-0.3,4.4,1.5c0.4,1,0.4,2.1,0.7,3.4
		H10.3c0-1.4-0.3-2.7,0.8-3.9c1.1-1.2,2.5-0.8,4-0.9V49.4z"/>
	<path class="st0" d="M51.9,44.5c-13.5,0-27.1,0-40.6,0c-1.4,0-2.7-0.3-3.4-1.8c-0.6-1.3-0.2-2.7,0.9-3.6c0.3-0.2,0.7-0.4,1-0.6
		c13.4-6.9,26.8-13.8,40.1-20.7c1.3-0.7,2.5-0.7,3.8,0c13.4,7,26.8,13.9,40.2,20.8c1,0.5,1.9,1.2,2.1,2.4c0.3,1.5-0.6,3-2.1,3.4
		c-0.5,0.1-1,0.1-1.6,0.1C78.9,44.5,65.5,44.5,51.9,44.5z"/>
</g>
</svg>
