<?xml version="1.0" encoding="utf-8"?>
<!-- Generator: Adobe Illustrator 22.0.0, SVG Export Plug-In . SVG Version: 6.00 Build 0)  -->
<svg version="1.1" id="Capa_1" xmlns="http://www.w3.org/2000/svg" xmlns:xlink="http://www.w3.org/1999/xlink" x="0px" y="0px"
	 viewBox="0 0 104 112" style="enable-background:new 0 0 104 112;" xml:space="preserve">
<style type="text/css">
	.st0{fill:none;stroke:#FFFFFF;stroke-width:2.3933;stroke-linecap:round;stroke-linejoin:round;stroke-miterlimit:10;}
</style>
<g>
	<path class="st0" d="M7.1,58.3c2-0.8,0.6-3.3,2.9-4.6c-1.8,19.7,7.2,33.5,23,43.8C22,94.2,13.5,88.2,9,77.4c-0.6-1.3-0.4-3-1.9-3.8
		C7.1,73.6,7.1,58.3,7.1,58.3z"/>
	<path class="st0" d="M16.7,43.6c-1.7-1.3-4.8,1.1-5.4-1.6c-0.8-3,2.6-3.7,4.4-4.9c5-3.5,10.2-6.7,16-9.5c-2.5,6.9-4.9,13.9-7.8,22
		c-1.4-2.2-2.3-3.5-3.3-5.2C15.4,57.9,21.6,76,33.7,84.8C45.4,93.3,62.4,93,73.4,84c13.3-11,17.8-29.9,10.8-45
		C79.7,29.6,73.1,22.8,63,19.6c-9.8-3.2-19-1.8-28.4,3.7c2.7-7.5,20.1-10.9,32.3-7.2c21.5,6.5,34.2,27.8,28.8,48.4
		C90.1,86,69.2,99.5,47.8,94.9C28,90.6,10.5,71.1,16.7,43.6z"/>
	<path class="st0" d="M67,40c-4.1-1.2-8.1-1.9-12.2-1.5c-2.5,0.3-4.8,1-5.5,3.7c-0.7,2.9,1.2,4.4,3.5,5.5c3,1.4,6.1,2.5,9,3.9
		c6.4,3.1,9.1,7.2,8.5,13.3c-0.6,6.3-4.2,10.5-10.8,12.1c-2,0.5-3.8,0.8-3.5,3.5c0.2,1.7-1,2-2.4,1.9c-1.2-0.1-2.8,0.3-2.5-1.6
		c0.4-2.9-1.4-3.1-3.5-3.2c-1.2-0.1-2.4-0.3-3.5-0.5c-3.8-0.7-5.9-4.8-4.3-8.2c0.7-1.5,1.8-0.8,2.7-0.5c4,1.3,8.1,2,12.3,1.6
		c3-0.3,5.8-0.9,6.4-4.4c0.6-3.5-1.9-5.1-4.5-6.4C53.8,58,50.9,57,48,55.7c-5.2-2.5-8.2-6.4-7.7-12.4c0.4-5.7,3.5-9.4,8.8-11.1
		c1.9-0.6,3.2-1.4,2.8-3.7c-0.3-1.4,0.3-2.4,1.9-2.3c1.3,0.1,3-0.4,2.9,1.8c-0.2,2.8,1.5,3.1,3.6,3.3C69.1,32.2,67.2,31.9,67,40z"/>
</g>
</svg>
