<?xml version="1.0" encoding="utf-8"?>
<!-- Generator: Adobe Illustrator 22.0.0, SVG Export Plug-In . SVG Version: 6.00 Build 0)  -->
<svg version="1.1" id="Capa_1" xmlns="http://www.w3.org/2000/svg" xmlns:xlink="http://www.w3.org/1999/xlink" x="0px" y="0px"
	 viewBox="0 0 104 112" style="enable-background:new 0 0 104 112;" xml:space="preserve">
<style type="text/css">
	.st0{fill:none;stroke:#FFFFFF;stroke-width:2.9159;stroke-miterlimit:10;}
</style>
<g>
	<path class="st0" d="M45.5,6.1c6.1,0,12.2-0.2,18.3,0.1c7.6,0.3,13.9,3.3,18.1,9.9c2.8,4.5,3.4,9.5,2.7,14.7
		c-1.4,9.8-5.7,17.9-13.9,23.6c-5.2,3.6-11,5.5-17.4,5.7c-3.9,0.1-7.8,0.1-11.7,0.1c-2.8,0-4.3,1.1-4.8,3.9
		c-0.8,4.4-1.5,8.9-2.2,13.4c-0.8,4.9-1.5,9.8-2.3,14.6c-0.2,1-0.5,1.4-1.7,1.4c-5.5-0.1-10.9,0-16.4,0c-3.1,0-4.8-2-4.3-5.1
		c2.8-17.7,5.6-35.3,8.4-53c1.3-8.3,2.6-16.5,4-24.8c0.6-3.6,2-4.7,5.6-4.7C33.7,6,39.6,6,45.5,6.1L45.5,6.1z"/>
	<path class="st0" d="M91.9,36.6c1.4,2.3,2,4.5,2.2,6.8c1.2,14.7-8,27.7-22.1,31.4c-3.9,1-7.8,1-11.8,1c-3.9,0-4.9,0.8-5.5,4.8
		c-1,6.8-2.1,13.6-3.2,20.3c-0.2,1.1-0.4,2.2-1.1,3.2c-0.8,1.2-1.8,1.8-3.2,1.8c-4.3,0-8.6,0-13,0c-1.9,0-3.3-1.2-3.7-2.8
		c-0.2-0.9,0-1.4,1.1-1.3c1.9,0.1,3.9-0.1,5.8,0c1.2,0.1,1.7-0.3,1.9-1.5c1.2-8.3,2.6-16.5,3.9-24.8c0.3-2.1,0.7-4.1,1-6.2
		c0.1-1,0.7-0.9,1.4-0.9c4.3,0,8.5,0.2,12.8-0.6c16.9-3.1,27.8-13,32.9-29.3C91.5,38.1,91.7,37.5,91.9,36.6z"/>
</g>
</svg>
