<?xml version="1.0" encoding="utf-8"?>
<!-- Generator: Adobe Illustrator 22.0.0, SVG Export Plug-In . SVG Version: 6.00 Build 0)  -->
<svg version="1.1" id="Capa_1" xmlns="http://www.w3.org/2000/svg" xmlns:xlink="http://www.w3.org/1999/xlink" x="0px" y="0px"
	 viewBox="0 0 104 112" style="enable-background:new 0 0 104 112;" xml:space="preserve">
<style type="text/css">
	.st0{fill:#FFFFFF;}
</style>
<g>
	<path class="st0" d="M92.9,40.6c0.7,0,1.5,0,2.2,0c0.4,0,0.8,0,1.2,0l1.6,13.3l2,16.7c-0.2,0-0.3,0-0.5,0c-0.6,0-1.2,0-1.8,0
		c-1.2,0-2.5,0-3.9-0.1c0,0,0,0,0-0.1c-0.2-1.5-0.4-3.1-0.4-4.7c0-0.6-0.1-1.5-0.6-2.2c-0.5-0.7-1.3-1-2.3-1c-0.2,0-0.4,0-0.6,0.1
		c-0.6,0.1-1.2,0.1-1.7,0.1c-0.6,0-1.1-0.1-1.6-0.1c-0.3-0.1-0.5-0.1-0.7-0.1c-2.4,0-3.2,2-3.5,2.7c-0.4,1-0.8,2-1.3,2.9
		c-0.3,0.7-0.6,1.3-0.9,2c-0.2,0.5-0.3,0.5-0.7,0.5h-0.1c-0.9-0.1-1.9-0.1-3.2-0.1c-0.7,0-1.4,0-2.1,0c-0.2,0-0.3,0-0.4,0
		c0.1-0.2,0.2-0.3,0.2-0.5c0.7-1.5,1.4-2.9,2-4.3C80.4,57,84.2,49.1,88.2,41c0.1-0.2,0.3-0.4,0.4-0.5C90.1,40.6,91.6,40.6,92.9,40.6
		 M87.3,58.2h4.1c0.4,0,0.7-0.2,0.9-0.4c0.3-0.3,0.4-0.6,0.3-1L92.3,54l-0.4-3.8c-0.1-0.6-0.5-1.1-1.1-1.1h-0.2h-0.2
		c-0.1,0-0.1,0-0.2,0c-0.5,0-1,0.3-1.2,0.8L86,56.6c-0.2,0.4-0.2,0.9,0.1,1.2C86.4,58,86.8,58.2,87.3,58.2 M92.9,39.3
		c-1.5,0-3.1,0-4.6,0.1c-0.5,0-1,0.7-1.3,1.2c-4.1,8.2-8.1,16.5-12.1,24.8c-1,2.1-2,4.2-3.1,6.6c1.6,0,3.2,0,4.6,0
		c1.1,0,2.1,0,3.1,0.1c0.1,0,0.1,0,0.1,0c1,0,1.5-0.4,1.8-1.3c0.7-1.6,1.5-3.3,2.1-4.9c0.5-1.2,1.1-1.9,2.3-1.9c0.2,0,0.3,0,0.5,0.1
		c0.6,0.1,1.2,0.1,1.8,0.1S89.4,64,90,64c0.2,0,0.3-0.1,0.5-0.1c1.2,0,1.6,0.7,1.6,2c0,1.6,0.2,3.3,0.4,4.9c0.1,0.4,0.5,1.1,0.8,1.1
		c1.4,0.1,2.9,0.1,4.4,0.1c1.2,0,2.4,0,3.7,0c-1.3-11-2.5-21.7-3.8-32.6C95.8,39.4,94.3,39.3,92.9,39.3 M87.3,56.9
		c1.1-2.3,2.1-4.5,3.1-6.8c0.1,0,0.3,0.1,0.4,0.1c0.2,2.2,0.4,4.4,0.6,6.7C91.3,56.9,87.3,56.9,87.3,56.9z"/>
	<path class="st0" d="M29.9,40.6L29.9,40.6c1.1,0,2.1,0.1,3.5,0.1c0.8,0,1.5,0,2.2,0c0.2,0,0.3,0,0.4,0c-0.5,1-1,2-1.5,2.9
		c-1.3,2.5-2.6,5.1-4,7.7c-3.1,6.1-6.4,12.3-9.5,18.5c-0.5,0.9-0.8,1-1.3,1c-0.1,0-0.1,0-0.2,0c-0.8-0.1-1.7-0.1-2.7-0.1
		c-0.8,0-1.6,0-2.3,0c-0.4,0-0.7,0-1.1,0h-0.1h-0.1l0,0c-0.8-5.9-1.6-11.8-2.4-17.6c-0.2-1.6-0.5-3.3-0.7-4.9l0,0l3.3,2
		c0.2,0.1,0.5,0.2,0.7,0.2c0.4,0,0.8-0.2,1-0.5l0.2-0.3c0.4-0.6,0.3-1.3-0.2-1.8l-4.6-3.8l-4.2-3.3h9.4l1.3,13.5l0.5,5.4
		c0.1,0.5,0.4,0.9,0.8,1.1l0.3,0.1C18.9,61,19,61,19.2,61c0.5,0,0.9-0.3,1.2-0.7l0.9-1.9c0.7-1.4,1.3-2.7,1.9-4.1
		c0.7-1.4,1.3-2.9,2-4.2c1.4-3,2.8-6,4.2-9C29.6,40.6,29.6,40.6,29.9,40.6 M29.9,39.3c-0.9,0-1.3,0.4-1.7,1.2
		c-2,4.4-4.1,8.8-6.2,13.2c-1,2-1.9,4-2.8,6.1l-0.3-0.1c-0.7-6.7-1.3-13.4-1.9-20.2H2.8c4.2,3.3,7.9,6.4,11.8,9.4
		c-0.1,0.1-0.2,0.2-0.2,0.3c-1.8-1.1-3.6-2.1-5.3-3.3c-0.2,0.2-0.2,0.3-0.2,0.3c1.1,8.2,2.2,16.4,3.4,24.7c0.1,0.9,0.6,1.1,1.3,1.1
		h0.1c1.1,0,2.3-0.1,3.4-0.1c0.9,0,1.7,0,2.6,0.1c0.1,0,0.2,0,0.3,0c1.2,0,1.9-0.5,2.4-1.6c4.5-8.8,9-17.5,13.5-26.2
		c0.8-1.5,1.5-3,2.4-4.8c-1.6,0-3.2,0-4.7,0C32.3,39.4,31.1,39.4,29.9,39.3C30,39.3,29.9,39.3,29.9,39.3 M38.2,39.3L38.2,39.3
		L38.2,39.3z"/>
	<path class="st0" d="M66.3,38.9v1.3c2.4,0,4.7,0.5,6.7,1.4l-1.7,4.6c-0.3-0.1-0.5-0.1-0.8-0.2c-1.5-0.4-3-0.7-4.4-0.9
		c-0.3-0.1-0.5-0.1-0.8-0.1c-0.7,0-1.4,0.2-1.9,0.5c-1,0.6-2.1,1.3-2.4,2.5c-0.4,1.4,1,2.9,1.5,3.4c1.1,0.9,2.2,1.6,3.4,2.2l0.4,0.2
		c4,2.3,5.4,4.9,4.9,8.5c-0.6,4.1-2.9,6.7-7.1,8c-1.7,0.5-3.5,0.8-5.2,0.8c-2.4,0-4.9-0.5-7.3-1.6c-0.2-0.1-0.6-0.3-0.8-0.4
		c0.1-0.3,0.2-0.6,0.3-0.8c0.5-1.2,1-2.5,1.5-3.6l0.1-0.3c0.4,0.1,0.8,0.2,1.2,0.3c1.8,0.5,3.6,1,5.4,1.2c0.2,0.1,0.4,0.1,0.6,0.1
		c1.5,0,2.9-0.7,3.5-1.1c1-0.6,1.6-1.5,1.7-2.5c0.1-1-0.4-2-1.3-2.9c-0.9-0.8-1.8-1.4-2.8-1.9c-0.2-0.1-0.4-0.2-0.5-0.3
		c-2.5-1.5-4.8-3-5.7-5.8c-1-3.5,0.5-7.4,3.6-9.4c2-1.4,4.9-2.1,7.9-2.1V38.9 M66.3,38.9c-3.2,0-6.3,0.8-8.7,2.4
		c-3.5,2.3-5.2,6.8-4.1,10.8c0.9,3.2,3.6,4.8,6.2,6.5c1.1,0.7,2.2,1.3,3.2,2.1c1.2,1.1,1.1,2.5-0.3,3.3c-0.8,0.5-1.9,0.9-2.8,0.9
		c-0.2,0-0.3,0-0.5-0.1c-2.4-0.4-4.9-1.1-7.5-1.8c-0.6,1.4-1.3,3.1-2,4.9c-0.7,1.8-0.7,2,1.2,2.8c2.5,1.1,5.1,1.7,7.8,1.7
		c1.8,0,3.7-0.3,5.6-0.9c4.5-1.4,7.3-4.3,8-9.1c0.7-4.7-1.8-7.6-5.6-9.8c-1.2-0.7-2.5-1.4-3.6-2.3c-0.6-0.5-1.2-1.5-1.1-2
		c0.2-0.7,1.1-1.3,1.8-1.7c0.4-0.2,0.8-0.3,1.3-0.3c0.2,0,0.4,0,0.6,0.1c2,0.4,4,0.8,6.2,1.3c0.8-2.1,1.7-4.4,2.5-6.7
		C72.2,39.6,69.2,38.9,66.3,38.9"/>
	<path class="st0" d="M43.8,40.6c0.1,0,0.1,0,0.2,0c0.8,0.1,1.7,0.1,2.7,0.1c0.7,0,1.3,0,2,0c0.2,0,0.4,0,0.6,0l-0.5,2.3
		c-0.5,2.7-1,5.3-1.5,7.9L47,53c-1.1,5.8-2.2,11.7-3.4,17.5c0,0.1,0,0.1-0.1,0.1c-1.3,0.1-2.6,0.1-3.8,0.1c-0.6,0-1.2,0-1.8,0
		c-0.1,0-0.2,0-0.3,0c0.2-0.8,0.3-1.5,0.5-2.3l1.1-5.5c1.3-7.1,2.7-14.4,4.1-21.6c0.1-0.5,0.2-0.7,0.2-0.7l0,0
		C43.5,40.6,43.6,40.6,43.8,40.6 M43.8,39.3c-1.2,0-1.5,0.6-1.8,1.7c-1.7,9.1-3.4,18.1-5.1,27.1c-0.2,1.2-0.5,2.3-0.8,3.8
		c1.3,0,2.4,0,3.7,0c1.4,0,2.9,0,4.3-0.1c0.3,0,0.7-0.7,0.8-1.1c1.3-6.5,2.5-13.1,3.7-19.6c0.7-3.8,1.4-7.7,2.2-11.8
		c-1.5,0-2.8,0.1-4.1,0.1c-0.9,0-1.8,0-2.6-0.1C44,39.3,43.9,39.3,43.8,39.3 M50.9,39.3L50.9,39.3L50.9,39.3z"/>
</g>
</svg>
