<?xml version="1.0" encoding="utf-8"?>
<!-- Generator: Adobe Illustrator 24.0.2, SVG Export Plug-In . SVG Version: 6.00 Build 0)  -->
<svg version="1.1" id="Layer_1" xmlns="http://www.w3.org/2000/svg" xmlns:xlink="http://www.w3.org/1999/xlink" x="0px" y="0px"
	 viewBox="0 0 300 300" style="enable-background:new 0 0 300 300;" xml:space="preserve">
<style type="text/css">
	.st0{fill:#FFFFFF;}
</style>
<path class="st0" d="M283.35,0H16.47C7.32,0-0.09,7.41-0.09,16.56v266.89c0,9.14,7.41,16.56,16.56,16.56h143.68V183.82h-39.1v-45.28
	h39.1v-33.39c0-38.75,23.67-59.85,58.23-59.85c16.56,0,30.79,1.23,34.94,1.78v40.49l-23.97,0.01c-18.8,0-22.44,8.93-22.44,22.04
	v28.91h44.83l-5.84,45.28h-39V300h76.45c9.14,0,16.56-7.41,16.56-16.56V16.56C299.91,7.41,292.5,0,283.35,0L283.35,0z"/>
</svg>
