<?xml version="1.0" encoding="utf-8"?>
<!-- Generator: Adobe Illustrator 22.0.0, SVG Export Plug-In . SVG Version: 6.00 Build 0)  -->
<svg version="1.1" id="Capa_1" xmlns="http://www.w3.org/2000/svg" xmlns:xlink="http://www.w3.org/1999/xlink" x="0px" y="0px"
	 viewBox="0 0 200 200" style="enable-background:new 0 0 200 200;" xml:space="preserve">
<style type="text/css">
	.st0{fill:#FF9700;}
</style>
<path class="st0" d="M35.2,110.7c-1.5,1.3-2.7,2.5-4,3.5c-4.9,3.8-9.2,2.5-10.4-3.5c-0.9-4.6-1.1-9.4-1-14.1
	c0.3-9.2,2.5-17.8,10-24.2c0.7-0.6,1.4-1.2,2.1-1.8c4.7-3.6,8-3.9,13-0.8c1.4,0.9,2.6,1,4.2,0.6c7-1.9,14-2.1,21,0
	c0.7,0.2,1.8,0,2.5-0.4c5.9-3.3,9-3.2,14.1,1.2C92.6,76,96.9,82,97.4,89.9c0.4,6.1,0.6,12.3,0.4,18.4c-0.1,3-0.9,6.3-4.3,7.6
	c-3.5,1.3-5.8-1.1-8.2-3c-0.6-0.5-1.1-1-2.1-2c1.5,6.7-1.1,11.8-4.3,16.6c-3.3,4.8-4.9,5.1-10.2,3c-0.8-0.3-2.1-0.3-2.8,0.1
	c-4.6,2.5-9,2.5-13.6,0.1c-0.9-0.5-2.4-0.3-3.4,0.1c-4.2,1.7-5.9,1.5-8.6-2.2C36.4,123.4,34,117.7,35.2,110.7z M60.7,128.3
	c0.6-0.2,0.9-0.2,1.1-0.3c3.3-1.8,6.6-2.8,10.1-0.4c0.4,0.3,1.9-0.1,2.3-0.7c3.9-5,6.7-10.2,4.5-17c-1.1-3.5-1-7.5-1.1-11.3
	c-0.1-3.6,0.5-7.2,0.6-10.7c0-7-4.6-12.6-11.4-14.2c-5.7-1.3-11.3-0.9-16.8,0.6c-6.1,1.6-9.9,6.2-10.2,12.6c-0.1,2.3,0,4.7,0.2,7
	c0.4,5.5,0.9,10.9-0.6,16.4c-1.7,5.9,0.5,11.1,3.9,16c1.1,1.6,2.2,2.1,3.9,1c2.2-1.4,4.5-1.3,6.9-0.1c1.1,0.6,2.2,0.9,3.7,1.5
	c0-1.4-0.1-2.5,0-3.6c0.2-2-0.6-3.2-2.1-4.5c-2-1.7-3.5-4.2-4.8-6.6c-1.3-2.3-0.6-3.6,2-3.8c4.4-0.3,8.8-0.3,13.2-0.1
	c2.5,0.1,3.2,1.7,1.9,3.9c-1.6,2.6-3.8,4.7-5.7,7.1c-0.6,0.8-1.2,1.7-1.4,2.6C60.6,125,60.7,126.5,60.7,128.3z M75.5,73
	c4.7,5.1,7.3,10.9,6.6,17.8c-0.3,2.9-0.5,5.8-0.7,8.7c0,0.7-0.2,1.7,0.1,2.2c2.7,3.3,5.4,6.7,8.4,9.8c1.4,1.5,2.7,0.7,3.3-1.2
	c0.2-0.7,0.5-1.5,0.5-2.2c-0.1-5.9-0.1-11.8-0.4-17.7C93,83,88.6,77.8,83.1,73.3C80.7,71.4,78.3,71.2,75.5,73z M42.5,73
	c-2.1-1.3-4.1-2-6.1-0.6c-5.4,3.7-10.1,8.3-11.2,15c-1,6.1-1,12.4-1.3,18.7c-0.1,1.6,0.5,3.3,1,4.9c0.4,1.2,1.5,1.9,2.5,0.9
	c2.9-2.9,5.8-5.7,8.2-9c0.9-1.2,0.6-3.5,0.6-5.2c0-2.1-0.2-4.2-0.4-6.2C35.2,84.4,37,78.2,42.5,73z"/>
<path class="st0" d="M49.2,95.3c-0.1,2.1-1.9,3.9-3.9,3.8s-3.6-2-3.5-4.2c0.1-2.1,1.7-3.6,3.7-3.6C47.6,91.3,49.3,93.2,49.2,95.3z"
	/>
<path class="st0" d="M71.8,95.1c0,2.1-1.7,4-3.7,4c-1.9,0-3.6-1.6-3.7-3.7c-0.1-2.3,1.4-4,3.5-4.1C70,91.2,71.8,93,71.8,95.1z"/>
<path class="st0" d="M116.9,110.7c-1.5,1.3-2.7,2.5-4,3.5c-4.9,3.8-9.2,2.5-10.4-3.5c-0.9-4.6-1.1-9.4-1-14.1
	c0.3-9.2,2.5-17.8,10-24.2c0.7-0.6,1.4-1.2,2.1-1.8c4.7-3.6,8-3.9,13-0.8c1.4,0.9,2.6,1,4.2,0.6c7-1.9,14-2.1,21,0
	c0.7,0.2,1.8,0,2.5-0.4c5.9-3.3,9-3.2,14.1,1.2c5.9,4.9,10.2,10.9,10.7,18.8c0.4,6.1,0.6,12.3,0.4,18.4c-0.1,3-0.9,6.3-4.3,7.6
	c-3.5,1.3-5.8-1.1-8.2-3c-0.6-0.5-1.1-1-2.1-2c1.5,6.7-1.1,11.8-4.3,16.6c-3.3,4.8-4.9,5.1-10.2,3c-0.8-0.3-2.1-0.3-2.8,0.1
	c-4.6,2.5-9,2.5-13.6,0.1c-0.9-0.5-2.4-0.3-3.4,0.1c-4.2,1.7-5.9,1.5-8.6-2.2C118.1,123.4,115.7,117.7,116.9,110.7z M142.4,128.3
	c0.6-0.2,0.9-0.2,1.1-0.3c3.3-1.8,6.6-2.8,10.1-0.4c0.4,0.3,1.9-0.1,2.3-0.7c3.9-5,6.7-10.2,4.5-17c-1.1-3.5-1-7.5-1.1-11.3
	c-0.1-3.6,0.5-7.2,0.6-10.7c0-7-4.6-12.6-11.4-14.2c-5.7-1.3-11.3-0.9-16.8,0.6c-6.1,1.6-9.9,6.2-10.2,12.6c-0.1,2.3,0,4.7,0.2,7
	c0.4,5.5,0.9,10.9-0.6,16.4c-1.7,5.9,0.5,11.1,3.9,16c1.1,1.6,2.2,2.1,3.9,1c2.2-1.4,4.5-1.3,6.9-0.1c1.1,0.6,2.2,0.9,3.7,1.5
	c0-1.4-0.1-2.5,0-3.6c0.2-2-0.6-3.2-2.1-4.5c-2-1.7-3.5-4.2-4.8-6.6c-1.3-2.3-0.6-3.6,2-3.8c4.4-0.3,8.8-0.3,13.2-0.1
	c2.5,0.1,3.2,1.7,1.9,3.9c-1.6,2.6-3.8,4.7-5.7,7.1c-0.6,0.8-1.2,1.7-1.4,2.6C142.3,125,142.4,126.5,142.4,128.3z M157.2,73
	c4.7,5.1,7.3,10.9,6.6,17.8c-0.3,2.9-0.5,5.8-0.7,8.7c0,0.7-0.2,1.7,0.1,2.2c2.7,3.3,5.4,6.7,8.4,9.8c1.4,1.5,2.7,0.7,3.3-1.2
	c0.2-0.7,0.5-1.5,0.5-2.2c-0.1-5.9-0.1-11.8-0.4-17.7c-0.4-7.5-4.8-12.7-10.4-17.2C162.4,71.4,160,71.2,157.2,73z M124.2,73
	c-2.1-1.3-4.1-2-6.1-0.6c-5.4,3.7-10.1,8.3-11.2,15c-1,6.1-1,12.4-1.3,18.7c-0.1,1.6,0.5,3.3,1,4.9c0.4,1.2,1.5,1.9,2.5,0.9
	c2.9-2.9,5.8-5.7,8.2-9c0.9-1.2,0.6-3.5,0.6-5.2c0-2.1-0.2-4.2-0.4-6.2C116.9,84.4,118.7,78.2,124.2,73z"/>
<path class="st0" d="M133.4,95.5c-0.1,2-1.8,3.7-3.7,3.6c-1.9-0.1-3.4-1.9-3.3-4c0.1-2,1.6-3.5,3.5-3.4
	C131.9,91.8,133.5,93.5,133.4,95.5z"/>
<path class="st0" d="M154.9,95.3c0,2-1.6,3.8-3.5,3.8c-1.8,0-3.4-1.6-3.5-3.5c-0.1-2.1,1.3-3.8,3.3-3.9
	C153.2,91.7,154.8,93.3,154.9,95.3z"/>
</svg>
