<?xml version="1.0" encoding="utf-8"?>
<!-- Generator: Adobe Illustrator 22.0.0, SVG Export Plug-In . SVG Version: 6.00 Build 0)  -->
<svg version="1.1" id="Capa_1" xmlns="http://www.w3.org/2000/svg" xmlns:xlink="http://www.w3.org/1999/xlink" x="0px" y="0px"
	 viewBox="0 0 200 200" style="enable-background:new 0 0 200 200;" xml:space="preserve">
<style type="text/css">
	.st0{fill:#FF9700;}
</style>
<g>
	<path class="st0" d="M13.7,69.1c1.8-4.4,4.6-7.6,9.6-8.5c0.8-0.1,1.7-1.2,2.1-2.1C31.6,45.8,41.9,39.1,55.8,39
		c14,0,24.4,6.8,30.6,19.6c0.5,1,1.7,1.9,2.8,2.2c5.5,1.6,8.9,5.7,8.8,10.9s-3.5,9.1-9.1,10.6c-0.9,0.2-1.9,1-2.3,1.8
		C82.5,93,75.9,99,66.8,102.3c-0.9,0.3-1.8,1.2-2.5,2c-4.7,5.6-12.2,5.6-16.8,0.1c-0.8-0.9-1.9-1.8-3-2.3
		c-8.7-3.4-15.1-9.1-19.1-17.6c-0.4-0.8-1.1-2-1.8-2.1c-5.1-0.6-7.8-3.9-9.9-8.1C13.7,72.7,13.7,70.9,13.7,69.1z M84.7,64.9
		c-0.2-0.3-0.3-0.3-0.4-0.4c-0.3-0.8-0.6-1.6-0.9-2.5c-3.9-10-11.2-16.1-21.6-18.3C57.5,42.8,53,43,49.3,46
		c-1.6,1.3-2.5,2.9-0.7,4.8c2.1,2.3,8.1,3.3,10.8,1.8c0.6-0.3,1.3-1.1,1.3-1.6c-0.1-0.6-0.9-1.4-1.5-1.4c-1.4-0.2-2.8,0.1-4.2-0.1
		c-0.8-0.1-1.8-0.7-2.2-1.3c-0.2-0.5,0.3-1.9,0.8-2.2c2.7-1.4,5.7-1.6,8.1,0.3c1.6,1.3,3.6,4,3.2,5.4c-0.5,2-2.9,4.1-5,4.9
		c-4,1.7-8.2,0.8-12-1.4c-3.4-2-4.4-5.3-4.2-9.3c-8.6,4-13.8,10.5-16.3,19c-5.9-0.4-9.3,2-9.5,6.4c-0.2,4.3,3,6.7,9.6,7.2
		c2.9,9.1,8.5,15.8,18,19.6c0.2-2.5,0.9-4.9,0.4-6.9c-0.8-3.2-0.4-5.7,2.4-7.3c5-2.8,10.1-2.8,15.1-0.1c2.1,1.2,4,3.4,2.9,5.7
		c-1.5,3.1-0.1,5.5,0.6,8.4c9.2-3.8,14.8-10.5,17.6-19.5c6.3-0.1,9.7-2.6,9.5-7C93.8,67,90.3,64.5,84.7,64.9z M62.4,98
		c0.1-3.4-3-6.5-6.5-6.6c-3.5,0-6.6,3-6.6,6.4c-0.1,3.5,2.9,6.5,6.5,6.6C59.3,104.5,62.3,101.6,62.4,98z M49,89.4
		c4.7-2.5,8.9-2.5,13.1-0.5C59,84.9,52.4,84.9,49,89.4z"/>
	<path class="st0" d="M102.6,130.9c-2,1.8-3.5,3.3-5.2,4.6c-6.4,5-12.1,3.3-13.7-4.6c-1.2-6.1-1.4-12.4-1.3-18.6
		c0.3-12.2,3.3-23.5,13.1-31.8c0.9-0.8,1.8-1.6,2.8-2.3c6.2-4.8,10.5-5.2,17.2-1.1c1.9,1.1,3.4,1.3,5.5,0.8c9.2-2.4,18.4-2.7,27.6,0
		c1,0.3,2.3,0,3.2-0.5c7.7-4.4,11.8-4.2,18.6,1.5c7.7,6.5,13.4,14.3,14.1,24.7c0.5,8.1,0.8,16.2,0.5,24.2c-0.1,4-1.2,8.3-5.7,10
		c-4.6,1.7-7.6-1.4-10.8-4c-0.7-0.6-1.4-1.3-2.8-2.6c1.9,8.9-1.4,15.6-5.7,21.9c-4.3,6.3-6.4,6.8-13.5,4c-1.1-0.4-2.7-0.4-3.7,0.1
		c-6,3.4-11.8,3.3-17.9,0.1c-1.2-0.6-3.2-0.4-4.5,0.2c-5.5,2.3-7.8,1.9-11.3-2.9C104.1,147.6,101,140.1,102.6,130.9z M136.2,154
		c0.8-0.2,1.2-0.2,1.4-0.4c4.4-2.3,8.7-3.6,13.3-0.5c0.6,0.4,2.5-0.2,3-0.9c5.1-6.6,8.8-13.4,5.9-22.4c-1.5-4.7-1.3-9.9-1.4-14.9
		c-0.1-4.7,0.7-9.4,0.7-14.1c0-9.2-6.1-16.6-15-18.7c-7.4-1.7-14.8-1.2-22.1,0.8c-8.1,2.1-13,8.2-13.4,16.5c-0.1,3.1,0,6.2,0.2,9.2
		c0.6,7.2,1.2,14.4-0.8,21.6c-2.2,7.8,0.7,14.6,5.1,21c1.4,2.1,2.9,2.8,5.2,1.3c2.9-1.9,6-1.7,9.1-0.2c1.4,0.7,2.9,1.2,4.8,2
		c0-1.9-0.1-3.3,0-4.7c0.3-2.6-0.7-4.1-2.8-5.9c-2.6-2.3-4.6-5.5-6.3-8.6c-1.7-3-0.8-4.7,2.6-5c5.8-0.4,11.6-0.4,17.4-0.1
		c3.2,0.2,4.3,2.2,2.4,5.1c-2.1,3.4-5,6.2-7.5,9.4c-0.8,1-1.6,2.2-1.8,3.4C135.9,149.8,136.2,151.8,136.2,154z M155.7,81.4
		c6.2,6.8,9.7,14.3,8.7,23.5c-0.4,3.8-0.6,7.6-0.9,11.5c-0.1,1-0.3,2.3,0.2,2.9c3.6,4.4,7.2,8.8,11.1,12.9c1.8,1.9,3.6,0.9,4.3-1.6
		c0.3-0.9,0.7-1.9,0.6-2.9c-0.1-7.8-0.1-15.5-0.6-23.3c-0.6-9.8-6.4-16.7-13.7-22.6C162.4,79.1,159.2,78.9,155.7,81.4z M112.2,81.3
		c-2.8-1.7-5.4-2.6-8-0.8c-7.2,4.9-13.3,10.9-14.7,19.8c-1.3,8.1-1.4,16.3-1.7,24.5c-0.1,2.1,0.7,4.3,1.3,6.4c0.5,1.6,2,2.5,3.3,1.2
		c3.8-3.8,7.6-7.5,10.8-11.8c1.2-1.6,0.8-4.6,0.8-6.9c0-2.7-0.3-5.5-0.5-8.2C102.6,96.3,104.9,88.1,112.2,81.3z"/>
	<path class="st0" d="M64.4,76.3c-1.2-1.8-2.5-2.9-2.4-3.6c0.2-1.1,1.6-1.9,2.5-2.8c0.8,1,2.2,1.8,2.4,2.9
		C67,73.6,65.7,74.6,64.4,76.3z"/>
	<path class="st0" d="M47.2,76.8c-1.2-2-2.4-3.1-2.3-4.1c0-0.8,1.6-2.2,2.4-2.2c0.9,0,2.4,1.5,2.4,2.3
		C49.7,73.8,48.5,74.9,47.2,76.8z"/>
	<path class="st0" d="M124.4,111c-0.1,2.7-2.4,4.9-4.9,4.8s-4.5-2.5-4.3-5.2c0.1-2.6,2.1-4.6,4.6-4.5
		C122.3,106,124.4,108.3,124.4,111z"/>
	<path class="st0" d="M152.6,110.7c0.1,2.6-2.1,5-4.6,5c-2.4,0-4.5-2.1-4.6-4.6c-0.1-2.8,1.7-5,4.4-5.1
		C150.3,105.9,152.5,108,152.6,110.7z"/>
</g>
</svg>
