<?xml version="1.0" encoding="utf-8"?>
<!-- Generator: Adobe Illustrator 22.0.0, SVG Export Plug-In . SVG Version: 6.00 Build 0)  -->
<svg version="1.1" id="Capa_1" xmlns="http://www.w3.org/2000/svg" xmlns:xlink="http://www.w3.org/1999/xlink" x="0px" y="0px"
	 viewBox="0 0 200 200" style="enable-background:new 0 0 200 200;" xml:space="preserve">
<style type="text/css">
	.st0{fill:#FF9700;}
</style>
<g>
	<path class="st0" d="M95.4,151.3c-0.2,1.4-0.2,2.6-0.4,3.8c-1,4.8-5.1,8.2-9.9,8.2c-15.2,0.1-30.4,0.1-45.5,0
		c-4.8,0-8.5-4.1-8.6-8.9c-0.1-4.7,3.6-8.7,8.4-8.9c1.6-0.1,3.1,0,4.8,0c-0.2-0.3-0.2-0.5-0.3-0.6c-4.7-4.9-6.2-10.6-4.9-17.3
		c1.2-6.2,1.8-12.4,3.1-18.6c1.9-9.2,6.9-16.1,15.5-20.3c2.1-1,3.3-1.9,3.6-4.8c0.6-7.7,6.5-13.8,13.8-15c7.8-1.3,15.1,2.3,18.6,9.3
		c4.4,8.8,0.3,19.8-8.8,23.6c-0.7,0.3-1.3,0.5-2.2,0.8c0.3,0.6,0.5,1.2,0.7,1.7c2.1,4.7,4.2,9.4,6.3,14c0.3,0.7,1,1.3,1.7,1.7
		c4.3,2.3,8.7,4.4,12.9,6.7c0.6,0.3,1.3,0.8,1.5,1.3c0.2,0.7,0,1.6-0.4,2.2c-0.5,0.8-1.5,0.8-2.3,0.4c-2.8-1.4-5.4-2.8-8.2-4.2
		c-2.2-1.1-4.4-2.2-6.5-3.4c-0.8-0.4-1.5-1.2-1.8-1.9c-2.6-5.5-5-11.1-7.5-16.7c-0.3-0.8-0.7-1.3-1.7-1.3
		c-7.2-0.5-12.2-4.2-15.1-10.7c-0.2-0.3-0.3-0.7-0.5-1.3c-1.9,1.1-3.9,2-5.6,3.3c-5.8,4.3-9.2,10-10.3,17.1
		c-0.9,6.1-2,12.1-2.9,18.2c-1.3,8.3,4.3,15.5,12.8,16.5c7.4,0.8,14.9,1.8,22.3,2.8c1.6,0.2,2.3,1,2.3,2.3c-0.1,1.3-1.1,1.9-2.8,1.8
		c-3.8-0.5-7.5-0.9-11.3-1.5c-4.8-0.7-9.6-1.6-14.4-2c-4-0.3-8-0.2-12.1,0c-2.7,0.1-4.6,2.5-4.5,5.1s2.2,4.7,4.9,4.7
		c15,0,29.9,0,44.9,0c3.7,0,6.3-2.6,6.5-6.3c0.3-3.5,0.3-3.5-2.9-5c-3.3-1.6-6.7-3.1-10.1-4.7c-2.3-1.1-4.1-2.8-5.4-5
		c-0.3-0.5-1-1-1.6-1.2c-2.6-0.8-5.2-1.3-7.8-1.9c-1.8-0.4-2.5-1.3-2.3-2.6c0.3-1.3,1.4-1.8,3.1-1.3s3.3,0.8,5.4,1.3
		c-1.5-2.8-3-5.1-4.2-7.6c-0.3-0.7-0.5-1.8-0.2-2.4c0.7-1.5,2.7-1.3,3.6,0.4c1.9,3.4,3.9,6.8,5.8,10.3c0.4,0.8,0.8,1.7,1.3,2.5
		c0.8,1.8,2.1,3,3.8,3.8c6.8,3.2,13.7,6.3,20.5,9.5c2.2,1,4.2,0.3,5-1.7c0.8-1.8,0-3.8-2.1-4.8c-4.8-2.3-9.4-4.5-14.2-6.7
		c-3.3-1.5-5.4-3.8-6.9-7c-1.9-4.2-4.2-8.2-6.3-12.2c-0.3-0.5-0.7-1.3-0.5-1.7c0.3-0.7,0.8-1.5,1.4-1.8c1-0.4,1.8,0.1,2.4,1.1
		c2.3,4.4,4.6,8.8,6.8,13.2c1,2.1,2.3,3.6,4.4,4.5c5,2.3,9.9,4.7,15,7c2.7,1.3,4.1,3.4,4.3,6.3c0.2,3-1.1,5.4-3.7,7
		c-2.2,1.3-4.4,1.4-6.8,0.4C98,152.5,96.7,151.9,95.4,151.3z M91.2,85.9c0-7.3-5.8-13.3-13.1-13.3c-7.3,0-13.2,5.8-13.2,13.1
		c-0.2,7.3,5.8,13.4,13.2,13.4C85.3,99,91.1,93.1,91.2,85.9z"/>
	<path class="st0" d="M106.9,109.7c-0.2-1.8-0.3-3.3-0.3-4.9c0-1.8,0.7-2.4,2.4-2.4c2.3,0,4.5,0.1,6.8,0c0.7,0,1.4-0.3,2-0.7
		c1.8-1.2,3.6-2.6,5.5-3.8c0.9-0.6,2.1-1,3.2-1.2c1.9-0.3,4.1,0.4,5.8-0.9c0.3-0.2,0.8-0.1,1.2,0.1c2.3,0.7,4.5,1.3,6.8,2.1
		c1.1,0.3,1.7,1.2,1.5,2.3c-0.1,0.8-0.1,1.6-0.3,2.3c-0.6,1.8-0.1,3.4,0.8,5.2c3.8,7.8,7.4,15.6,10.9,23.5
		c2.5,5.6,3.3,11.6,4.4,17.5c0.3,1.9,0.8,3.8,1.1,6c2.4-2.3,3.8-4.8,4.3-7.9c0.5-3.8-0.7-7.3-2.8-10.5c-1.6-2.6-3.6-4.9-5.4-7.3
		c-0.7-0.8-1-1.7-0.4-2.7c0.7-1.2,2.2-1.4,3.1-0.3c4.4,4.8,8.3,10,9.4,16.7c0.6,3.3,0.3,6.4-1.3,9.4c-2.9,5.7-7.3,9.7-13.7,11.1
		c-1.5,0.3-3.2,0.2-4.7,0.2c-12,0-24,0-36,0c-0.3,0-0.8,0.2-1.1-0.1c-0.6-0.5-1.3-1.1-1.6-1.8c-0.3-0.9,0.3-1.7,1.3-2
		c0.6-0.2,1.2-0.2,1.8-0.2c5.3,0,10.8,0,16.1,0c0.4,0,0.8-0.1,1.3-0.1c-0.4-0.5-0.7-0.9-0.9-1.3c-5.3-7.3-1.2-18.5,7.5-20.2
		c1.8-0.3,3.8,0.2,5.7,0.5c1.2,0.3,1.7,1.4,1.3,2.5c-0.3,1-1.4,1.7-2.6,1.3c-4.1-1.4-7.2,0.8-8.8,3.4c-2.2,3.5-2.1,7.8,0.4,10.6
		c1.8,2.2,4,3.5,7.1,3.3c3.6-0.2,7.3,0.1,10.9-0.1c1.6-0.1,3.1-0.7,4.6-1.2c0.3-0.1,0.7-0.8,0.6-1.2c-1.5-7.5-2.1-15.3-4.9-22.5
		c-2.3-5.8-5.2-11.5-7.9-17.3c-0.8-1.8-1.8-3.7-2.5-5.2c-1.6,0.8-3.1,1.9-4.7,2.2c-4.8,0.9-8.9-3.7-7.4-8.4c0.5-1.7,1.2-3.2,1.8-4.9
		c-1.6-0.2-3-0.4-4.3,0.6c-0.8,0.6-1.7,1-2.3,1.7c-2.9,2.8-6.3,3.8-10.3,3.3c-0.6-0.1-1.2,0-1.8,0c-0.2,2.6,1.8,5.1,4.4,5.6
		c2.2,0.4,4.3,0.8,6.5,1.2c1.4,0.3,2.2,0.8,2.3,2.4c0.7,5.4,1.5,10.9,2.2,16.4c0.1,0.7,0,1.5-0.3,2.2c-2.4,6.6-4.8,13.2-7.3,19.8
		c-0.6,1.5-1.5,2.1-2.8,1.7c-1.2-0.3-1.6-1.5-1.1-3c1.8-4.7,3.4-9.4,5.3-14.2c-2.1-1.3-4.3-2.6-6.2-4.2c-1.8-1.5-3.3-1.6-5,0
		c-0.5,0.5-1.3,0.8-1.9,1.2c-1,0.4-1.8,0.1-2.4-0.8c-0.6-0.9-0.5-1.9,0.3-2.5c1.8-1.3,3.8-2.5,5.8-3.6c0.6-0.3,1.7,0,2.3,0.4
		c2.8,1.8,5.6,3.6,8.7,5.6c0.2-1,0.5-1.8,0.4-2.7c-0.5-4.6-1.2-9.2-1.8-13.8c-0.1-0.8-0.4-1.2-1.3-1.3c-1.3-0.2-2.7-0.3-3.9-0.8
		c-1.8-0.6-3.5-1.3-5-2.3c-1.2-0.8-1.9-0.6-2.5,0.3c-0.5,0.8-0.8,1.7-0.9,2.6c-0.3,1.5-1,2.3-2.3,2.3c-1.2-0.1-1.8-1-1.8-2.5
		C102.9,113.5,104.1,111.6,106.9,109.7z M134.1,100.2c-0.8,2.3-1.8,4.5-2.5,6.8c-0.5,1.6,0.5,2.9,2.3,3.3c1.3,0.3,2.4-0.6,2.8-2.3
		c0.3-1.2,0.4-2.3,0.6-3.5C137.7,101,137.7,101,134.1,100.2z"/>
	<path class="st0" d="M106.5,40c2.7-2.5,5.8-3.9,9.4-3.8c5.3,0.2,9.4,2.7,11.5,7.5s1.7,9.6-1.8,13.5c-5.7,6.1-11.7,11.9-17.6,17.8
		c-0.9,0.9-2,0.9-2.9,0c-5.8-5.8-11.8-11.5-17.5-17.5c-4.4-4.7-4.3-12.4,0.2-17.1c4.5-4.8,11.8-5.6,17.1-1.7
		C105.3,39,105.8,39.4,106.5,40z M106.2,70.8c5.7-5.6,11.1-10.8,16.3-16.2c3.3-3.4,2.7-9-0.8-12.1c-3.5-3.3-8.8-3.1-12.3,0.3
		c-2.9,2.8-2.9,2.8-5.8,0c-2.4-2.3-5.3-3.3-8.5-2.4c-6.8,1.7-8.9,9.9-4,15c4.3,4.3,8.6,8.6,12.9,12.9
		C104.8,69.1,105.4,70,106.2,70.8z"/>
</g>
</svg>
