<?xml version="1.0" encoding="utf-8"?>
<!-- Generator: Adobe Illustrator 22.0.0, SVG Export Plug-In . SVG Version: 6.00 Build 0)  -->
<svg version="1.1" id="Capa_1" xmlns="http://www.w3.org/2000/svg" xmlns:xlink="http://www.w3.org/1999/xlink" x="0px" y="0px"
	 viewBox="0 0 200 200" style="enable-background:new 0 0 200 200;" xml:space="preserve">
<style type="text/css">
	.st0{fill:#FFFFFF;}
	.st1{fill:#FF9700;}
</style>
<g>
	<g>
		<path class="st0" d="M60.7,161.7c-8.4,0-16.6-3.5-22.5-9l10.7,6.5c0.3,0.2,0.6,0.3,1,0.3c0,0,0.1,0,0.1,0c0.3,0.3,0.7,0.5,1.1,0.5
			l14.1,1.2c0.1,0,0.1,0,0.2,0c0.4,0,0.7-0.1,1-0.3c0.1,0,0.3,0.1,0.4,0.1c0.3,0,0.5-0.1,0.8-0.2l13.4-6.1
			c-5.1,3.9-11.3,6.4-18.1,6.9C62.2,161.6,61.4,161.7,60.7,161.7z M143.4,159.4c-1.9,0-4-0.1-5.9-0.2c-1.2-0.1-2.4-0.1-3.5-0.2
			c-2.4-0.1-4.1-1.3-5.3-3.7c-3.4-7.1-6.9-14.3-10.2-21.2l-0.3-0.6c-0.4-0.9-0.8-1.8-1.1-2.6l-0.4-0.8c-0.3-0.7-1-1.1-1.7-1.1
			c-0.2,0-0.3,0-0.5,0.1c-1.7,0.5-3.3,0.9-5,1.3c-4.8,1.2-9.3,2.4-13.8,3.8c-2,0.6-3.4,3.1-3.8,4.5c-1.7,5.8-5.1,11-9.6,14.9
			c0.1-0.2,0.1-0.3,0.2-0.5c0-0.1,0-0.2,0-0.2c0,0,0,0,0,0c0.5-0.1,1-0.4,1.3-0.8l7.3-11.1c0.3-0.5,0.4-1.1,0.2-1.7c0,0,0-0.1,0-0.1
			c0.1-0.3,0.2-0.5,0.2-0.8v-12.8c0-0.3-0.1-0.6-0.2-0.9c0.2-0.5,0.1-1-0.1-1.5l-5.6-10.1c-0.2-0.3-0.5-0.6-0.8-0.8
			c-0.1-0.4-0.4-0.8-0.8-1.1l-10.8-6.5c-0.3-0.2-0.6-0.3-1-0.3c0,0,0,0,0,0c-0.3-0.3-0.7-0.6-1.2-0.6l-14.2-1c0,0-0.1,0-0.1,0
			c-0.3,0-0.7,0.1-1,0.3c-0.2,0-0.3-0.1-0.5-0.1c-0.3,0-0.5,0.1-0.7,0.2l-13.6,6c-0.6,0.3-1,0.8-1.1,1.4c0,0.2,0,0.4,0,0.6
			c-0.1,0-0.1,0-0.2,0c-0.1,0-0.2,0-0.2,0c-0.5,0.1-1,0.4-1.3,0.8L30.9,123c-0.3,0.5-0.4,1.1-0.2,1.7c0,0,0,0,0,0
			c-0.1,0.3-0.2,0.5-0.2,0.8v12.9c0,0.3,0.1,0.6,0.2,0.9c-0.2,0.5-0.2,1.1,0.1,1.6l5.7,9.9c0.2,0.3,0.5,0.6,0.8,0.7
			c0,0.2,0.1,0.3,0.2,0.4c-2.4-2.4-4.4-5.3-5.8-8.4c-4.6-10.4-3.1-20.5,4.6-30c0.5-0.6,1-1.2,1.6-1.8c0.3-0.3,0.6-0.6,0.9-1
			c0.5-0.6,0.6-1.4,0.3-2.1c-2.5-4.6-2.5-9.5-0.2-16.3c0.7-2.1,0.1-4.5-0.3-6.3c-1.3-5.6-0.1-10.4,3.5-13.8
			c-0.1,1.8-0.3,3.5-0.2,5.3c0,2.2,0.1,8.1,5.8,8.1c1.1,0,2.4-0.2,4-0.7c3.5-1,7.1-1.5,11-1.5c4.6,0,9.6,0.7,16.1,2.1
			c4,0.9,8.1,1.4,12,2c2.3,0.3,4.6,0.6,6.9,1c0.4,0.1,0.9,0.3,1,0.5c2,5.1,4,10.3,6,15.7l1,2.7l-18.9,1.6c-0.6,0-1.1,0.4-1.4,0.9
			c-0.3,0.5-0.4,1.1-0.2,1.6c1.4,3.8,3.9,5.5,7.6,5.5h0c0.6,0,1.2,0,1.9-0.1c10.4-1.2,21.1-2.2,31.4-3.1c3.5-0.3,7.1-0.6,10.6-1
			c0.2,0,0.5,0,0.7,0l0,4.4c0,6.7,0,13.1,0,19.6c0,0.7,0.1,1.4,0.2,2.1c0.1,0.5,0.1,0.9,0.2,1.3c0.2,3.5,1.2,7.7,7.3,8.2
			c1.2,0.1,3.2,1.5,4,3c1.3,2.2,2.1,4.6,2,6.4c-0.8,0.5-3.1,1.1-4.9,1.3C145.4,159.4,144.5,159.4,143.4,159.4z M61.8,134.4
			c-0.2-0.1-0.4-0.1-0.6-0.1l-0.8-0.1c0,0-0.1,0-0.1,0c-0.3,0-0.6,0.1-0.8,0.2L59,134c-0.3-0.2-0.6-0.3-0.9-0.4c0,0-0.1-0.2-0.1-0.2
			c0.3-0.3,0.4-0.8,0.4-1.2l0-0.8c0.1-0.1,0.1-0.1,0.1-0.2c0-0.1,0.1-0.1,0.1-0.2l0.2-0.3c0.1-0.1,0.2-0.3,0.3-0.4
			c0.3-0.1,0.5-0.2,0.7-0.4c0,0,0.1,0,0.1,0c0.2-0.1,0.4-0.2,0.6-0.3c0,0,0.1,0,0.1,0c0.2,0,0.3,0.1,0.5,0.1c0,0,0.9,0,0.9,0
			c0.2,0,0.4,0,0.5-0.1c0,0,0.8,0.4,0.8,0.4c0,0.2,0.1,0.4,0.2,0.5c0,0,0.4,0.6,0.4,0.6c0,0.2-0.1,0.4,0,0.6l0,0.1
			c-0.4,0.2-0.7,0.4-0.9,0.8l-0.4,0.7c-0.1,0.2-0.2,0.5-0.2,0.8C62.1,134.3,61.9,134.3,61.8,134.4z"/>
		<path class="st1" d="M40.2,79.6c0.5,5.4,3,8.1,7.6,8.1c1.3,0,2.7-0.2,4.5-0.7c3.3-0.9,6.7-1.4,10.5-1.4c4.5,0,9.3,0.6,15.7,2.1
			c4.1,0.9,8.2,1.5,12.2,2c2.2,0.3,4.5,0.6,6.7,0.9c1.9,4.9,3.8,9.8,5.8,15.1c0.1,0.1,0.1,0.3,0.2,0.4l-8,0.7l-8.5,0.7
			c-1.1,0.1-2.1,0.7-2.8,1.6l-8.5-5.1l-1.3-0.8c-0.4-0.2-0.8-0.4-1.2-0.5c-0.5-0.4-1.2-0.6-1.8-0.7l-6.9-0.5l-7.3-0.5
			c-0.1,0-0.2,0-0.3,0c-0.4,0-0.8,0.1-1.2,0.2c-0.1,0-0.2,0-0.2,0c-0.5,0-1,0.1-1.5,0.3l-8.2,3.6l-5,2.2c-1.9-4-1.9-8.3,0.1-14.3
			c0.9-2.6,0.2-5.3-0.3-7.3C40,83.9,39.7,81.7,40.2,79.6 M135.7,115.1l0,2.5c0,6.7,0,13.1,0,19.5c0,0.9,0.1,1.7,0.2,2.3
			c0.1,0.4,0.1,0.8,0.1,1.1c0.1,2.3,0.5,9.2,9,9.9c0.6,0.1,2,1.1,2.6,2.1c0.9,1.4,1.4,3,1.6,4.3c-0.9,0.3-2.2,0.6-3.2,0.6
			c-0.8,0.1-1.7,0.1-2.7,0.1c-1.9,0-3.8-0.1-5.8-0.2c-1.2-0.1-2.4-0.1-3.6-0.2c-1.2,0-2.6-0.4-3.7-2.7c-3.4-7-6.8-14.1-10.1-21
			l-0.4-0.8c-0.4-0.9-0.8-1.8-1.1-2.5c-0.1-0.3-0.3-0.6-0.4-0.8c-0.6-1.4-1.9-2.2-3.4-2.2c-0.3,0-0.6,0-1,0.1
			c-1.7,0.4-3.3,0.9-5,1.3c-4.8,1.3-9.3,2.4-13.9,3.8c-0.7,0.2-1.3,0.6-1.9,1v-7.8c0-0.4-0.1-0.8-0.2-1.1c0.1-0.7-0.1-1.5-0.4-2.2
			l-1.8-3.3c0.6,0.1,1.3,0.1,1.9,0.1c0.7,0,1.3,0,2.1-0.1c10.4-1.2,21.1-2.1,31.4-3.1C129.4,115.7,132.5,115.4,135.7,115.1
			 M61.5,131.6c-0.1,0.1-0.1,0.2-0.2,0.3l-0.3,0.6l-0.1,0l-0.4,0c-0.1,0-0.2,0-0.3,0c0,0-0.1,0-0.1,0c0-0.1,0-0.1,0-0.2c0,0,0,0,0,0
			c0.1-0.1,0.1-0.1,0.2-0.2c0.2-0.1,0.3-0.2,0.5-0.3c0.1,0,0.1,0,0.2-0.1c0.1,0,0.1,0,0.2,0c0,0,0.1,0,0.1,0L61.5,131.6 M44.3,68.6
			L44.3,68.6L44.3,68.6z M44.3,68.6c-6.8,3.8-9.3,10.4-7.5,18c0.4,1.7,0.9,3.7,0.4,5.2c-2,6-2.8,11.9,0.3,17.7
			c-0.9,1-1.8,1.9-2.6,2.8c-7.9,9.7-10,20.3-4.9,31.9c5.1,11.5,17.8,19.2,30.6,19.2c0.8,0,1.6,0,2.4-0.1
			c14.5-1.1,26.9-10.9,30.7-24.2c0.4-1.3,1.5-2.9,2.6-3.3c6-1.9,12.2-3.4,18.7-5.1c0.4,0.8,0.9,2.2,1.5,3.4
			c3.5,7.3,7,14.6,10.5,21.8c1.4,2.8,3.6,4.6,6.9,4.8c3.2,0.1,6.3,0.4,9.5,0.4c1,0,2,0,3-0.1c2.4-0.2,6.5-1.3,6.6-2.4
			c0.3-2.6-0.8-5.7-2.2-8.1c-1.1-1.8-3.5-3.7-5.5-3.8c-4.4-0.4-5.4-2.8-5.6-6.4c-0.1-1.1-0.4-2.2-0.4-3.3c0-8.4,0-16.9,0-25.8
			c-0.7,0-1.2,0-1.8,0c-0.3,0-0.6,0-0.9,0c-14,1.3-28.1,2.5-42.1,4.1c-0.6,0.1-1.2,0.1-1.7,0.1c-2.8,0-4.6-1.1-5.9-4.3
			c7.1-0.6,14-1.2,21.3-1.8c-2.8-7.4-5.3-14.1-8-20.8c-0.3-0.7-1.5-1.4-2.4-1.5c-6.3-1-12.6-1.5-18.8-2.9c-5.5-1.2-11-2.2-16.5-2.2
			c-3.8,0-7.6,0.4-11.5,1.5c-1.4,0.4-2.5,0.6-3.5,0.6c-2.9,0-3.9-1.9-4-6.3C43.7,74.7,44.1,71.8,44.3,68.6L44.3,68.6z M61.1,127.9
			c-1.4-7.4-2.8-14.8-4.4-23.2c4.9,0.4,9.3,0.7,14.2,1c-3.2,7.9-6.1,15-8.9,22.1C61.6,127.9,61.3,127.9,61.1,127.9L61.1,127.9z
			 M58.4,128.8c-5.5-5-10.3-11.9-16.8-17.8c4.8-2.1,9-4,13.6-6c1.5,7.9,3.2,16.6,4.4,23.2C59.1,128.4,58.7,128.4,58.4,128.8
			L58.4,128.8z M64.1,128.4c-0.2-0.1-0.4-0.2-0.7-0.4c2.8-7,5.6-14,8.7-21.7c3.6,2.2,7,4.2,10.8,6.5
			C76.3,118.4,70.2,123.4,64.1,128.4L64.1,128.4z M56.9,130.2c-8.6-2.2-15.6-4-24.5-6.2c2.7-4.2,5.1-7.9,7.1-10.9
			c6.4,5.9,11.2,10.6,17.8,16.7C57.2,129.9,57,130,56.9,130.2L56.9,130.2z M65.4,130.1c-0.1-0.2-0.2-0.4-0.4-0.6
			c6.1-5,12.2-10.1,18.9-15.6c2,3.5,3.7,6.6,5.6,10.1C81,126.3,73.2,128.2,65.4,130.1L65.4,130.1z M32.4,138.4c0-4.3,0-8.3,0-12.9
			c8.4,2.1,16.2,4.1,24,6.1c0,0.3,0,0.5,0,0.8C48.6,134.3,40.8,136.3,32.4,138.4L32.4,138.4z M89.7,138.4c-8.4-2.1-16.1-4.1-23.9-6
			c0-0.3-0.1-0.5-0.1-0.8c7.8-2,15.7-3.9,24-6C89.7,130.1,89.7,134,89.7,138.4L89.7,138.4z M82.3,151c-6.4-5.8-12.3-11.2-18.2-16.7
			c0.1-0.2,0.3-0.5,0.4-0.7c8,2,16,4,25.1,6.3C86.8,144.2,84.4,147.9,82.3,151L82.3,151z M38.1,149.9c-2-3.4-3.6-6.3-5.7-9.9
			c8.3-2.1,15.9-4,23.5-6c0.2,0.2,0.3,0.5,0.5,0.7C50.6,139.6,44.7,144.4,38.1,149.9L38.1,149.9z M49.9,157.6
			c-3.6-2.2-6.9-4.2-10.8-6.6c6.6-5.5,12.7-10.5,18.7-15.5c0.2,0.2,0.5,0.4,0.7,0.6C55.8,143,52.9,150,49.9,157.6L49.9,157.6z
			 M65.4,159.3c-5.1-0.4-9.3-0.8-14.1-1.2c3.2-7.9,6.1-15,8.9-22.1c0.3,0,0.5,0,0.8,0.1C62.4,143.4,63.8,150.8,65.4,159.3
			L65.4,159.3z M66.9,159c-1.5-8.3-2.9-15.7-4.3-23c5.8,5.4,11.5,10.7,18.1,16.7C75.7,155,71.5,156.9,66.9,159L66.9,159z"/>
	</g>
	<g>
		<path class="st0" d="M114.7,106.4c-0.2,0-0.6-0.3-0.8-0.4c-2.2-5.2-4.4-10.5-6.5-15.6l-1.2-3c8.7-3.3,12-8.1,12-17.5
			c0-1.3,0-2.7-0.1-4c-0.1-3.5-0.2-6.8,0.3-10c1.5-10.7,9-18,18.9-18.6l-7.8,7.6c-0.6,0.6-0.7,1.6-0.2,2.4l0.7,1
			c0.3,0.5,0.8,0.8,1.4,0.8c0.8,0.1,1.7,0.1,2.5,0.1c1.8,0.1,3.5,0.2,5.2,0.4c9.6,1.3,13,4.8,13.8,14.5c0.5,5.6,1.8,6.9,7.5,7.2
			c0.9,0,1.8,0.1,2.6,0.1h1.5c1.8,0,4.3,0.3,5.4,1.8c1.1,1.4,0.8,3.7,0.4,5.4c-0.9,3.4-2.3,6.6-4.1,9.4c-0.4,0.6-1.8,1.2-4.3,1.7
			c-1.9,0.4-4,0.5-6.1,0.7c-0.7,0-1.4,0.1-2.1,0.1c-8.5,0.7-11.8,3.3-14,11.5c-0.3,1-0.5,2-0.7,3c0,0,0,0,0,0.1l-4.4,0.3
			C127.9,105.6,121.4,106,114.7,106.4z"/>
		<path class="st1" d="M131.4,40.4l-3.1,3c-1.3,1.2-1.5,3.2-0.5,4.7l0.3,0.5l0.3,0.5c0.6,0.9,1.7,1.5,2.8,1.6
			c0.8,0.1,1.7,0.1,2.6,0.1c1.8,0.1,3.5,0.2,5.1,0.4c8.8,1.1,11.5,3.9,12.2,12.8c0.6,6.5,2.6,8.5,9.3,8.9c0.9,0,1.8,0.1,2.7,0.1
			l0.5,0l0.5,0l0.5,0c2,0,3.5,0.4,4,1.1c0.5,0.6,0.5,2,0.1,3.8c-0.8,3.1-2.1,6.1-3.8,8.7c-0.2,0.2-1,0.5-3.2,1
			c-1.8,0.4-3.8,0.5-5.8,0.6c-0.7,0-1.4,0.1-2.1,0.1c-9.3,0.7-13.2,4-15.6,12.9c-0.2,0.6-0.3,1.2-0.4,1.8c-1,0.1-2,0.1-3,0.2
			c-6.6,0.5-12.9,0.9-19.3,1.2c-2.1-4.9-4.1-10-6.1-14.8c-0.2-0.4-0.4-0.9-0.5-1.3c8.2-3.6,11.4-9,11.4-18.5c0-1.4,0-2.8-0.1-4.1
			c-0.1-3.4-0.2-6.6,0.3-9.7C121.3,48.5,125.5,42.9,131.4,40.4 M138.6,35.3C138.6,35.3,138.6,35.3,138.6,35.3
			c-11.4,0.1-20.3,8.1-22,20.3c-0.7,4.7-0.2,9.5-0.2,14.3c0,8.7-2.8,12.7-10.9,15.8c-0.4,0.2-0.8,0.4-1.5,0.8
			c2.8,6.9,5.5,13.7,8.4,20.4c0.3,0.7,1.6,1.4,2.4,1.4c0,0,0,0,0.1,0c8.6-0.5,17.1-1.1,25.9-1.7c0.4-1.5,0.7-2.9,1-4.3
			c2-7.4,4.6-9.6,12.4-10.2c2.8-0.2,5.7-0.3,8.4-0.8c2-0.4,4.5-1,5.5-2.5c2-3,3.5-6.4,4.4-9.9c1.6-6.2-1.2-9.5-7.6-9.5
			c-0.2,0-0.3,0-0.5,0c-0.3,0-0.7,0-1,0c-0.8,0-1.7,0-2.5-0.1c-4.8-0.3-5.4-0.8-5.8-5.5c-0.9-10.6-4.9-14.8-15.4-16.2
			c-2.6-0.3-5.3-0.4-7.9-0.5c-0.2-0.3-0.5-0.7-0.7-1c3.4-3.3,6.9-6.6,10.8-10.4C140,35.5,139.3,35.3,138.6,35.3L138.6,35.3z"/>
	</g>
</g>
</svg>
