<?xml version="1.0" encoding="utf-8"?>
<!-- Generator: Adobe Illustrator 24.0.2, SVG Export Plug-In . SVG Version: 6.00 Build 0)  -->
<svg version="1.1" id="Layer_1" xmlns="http://www.w3.org/2000/svg" xmlns:xlink="http://www.w3.org/1999/xlink" x="0px" y="0px"
	 viewBox="0 0 300 300" style="enable-background:new 0 0 300 300;" xml:space="preserve">
<style type="text/css">
	.st0{fill:#FFFFFF;}
</style>
<path class="st0" d="M97.19,0c35.4,0,70.8,0,106.2,0c4.11,0.35,8.23,0.78,12.35,1.05c21.14,1.41,40.74,6.83,56.9,21.47
	c18.24,16.52,26.21,37.92,26.63,61.67c0.77,44.03,0.69,88.09,0.02,132.12c-0.32,20.97-6.74,40.38-21.27,56.39
	c-16.41,18.07-37.62,26.13-61.19,26.55c-44.36,0.8-88.78,1.24-133.11-0.05c-46.72-1.36-76.52-30.21-81.96-76.46
	C1,216.3,0.58,209.84,0,203.39c0-35.4,0-70.8,0-106.2c0.36-4.28,0.85-8.55,1.06-12.84c2.3-46.93,30.29-77.07,76.86-82.6
	C84.32,0.99,90.76,0.57,97.19,0z M150.59,28.07c0,0.01,0,0.01,0,0.02c-21.02,0-42.05-0.43-63.06,0.14
	c-16.51,0.45-32.03,4.45-44.05,17.14C32.07,57.42,28.53,72.4,28.18,88.17c-0.69,31.02-0.95,62.06-0.91,93.1
	c0.01,13.83,0.45,27.73,1.94,41.46c2.77,25.44,17.83,42.2,41.87,47.48c6.32,1.39,12.88,2.18,19.34,2.29
	c29.53,0.51,59.06,0.92,88.6,0.86c14.5-0.03,29.07-0.43,43.47-1.98c28.11-3.03,45.89-20.9,48.93-49.03
	c1.48-13.73,1.91-27.64,1.91-41.46c0.02-31.03,0.04-62.08-0.96-93.1c-1.23-38.09-21.59-58.28-59.71-59.59
	C191.99,27.48,171.28,28.07,150.59,28.07z"/>
<path class="st0" d="M73.12,150.3c0-42.89,34.43-77.22,77.41-77.18c42.59,0.04,76.92,34.48,76.92,77.16
	c0,42.89-34.43,77.22-77.41,77.17C107.46,227.41,73.12,192.97,73.12,150.3z M150.53,200.36c27.46-0.12,49.89-22.7,49.83-50.2
	c-0.06-27.48-22.59-49.95-50.07-49.96c-27.68,0-50.26,22.75-50.08,50.45C100.39,178.11,123.04,200.48,150.53,200.36z"/>
<path class="st0" d="M248.54,69.95c0.06,10.08-7.99,18.2-18.04,18.2c-10.01,0-18.14-8.2-18.07-18.22
	c0.08-9.87,7.97-17.78,17.84-17.89C240.41,51.92,248.48,59.84,248.54,69.95z"/>
</svg>
