<?xml version="1.0" encoding="utf-8"?>
<!-- Generator: Adobe Illustrator 22.0.0, SVG Export Plug-In . SVG Version: 6.00 Build 0)  -->
<svg version="1.1" id="Capa_1" xmlns="http://www.w3.org/2000/svg" xmlns:xlink="http://www.w3.org/1999/xlink" x="0px" y="0px"
	 viewBox="0 0 500 500" style="enable-background:new 0 0 500 500;" xml:space="preserve">
<style type="text/css">
	.st0{fill:#FFFFFF;}
</style>
<g>
	<path class="st0" d="M28,232.7c0.4-2.3,0.8-4.5,1.2-6.8c2-12.7,6.5-24.2,15.3-33.8c11.2-12.2,25.2-17.5,41.6-16.1
		c12.1,1.1,22.7,5.9,32.3,13.1c13.4,10,22.8,23.1,29,38.5c4.4,10.7,6.7,21.9,6.8,33.5c0.1,12.6-2.3,24.6-8.3,35.7
		c-6.3,11.6-15.3,20.1-27.9,24.6c-11.8,4.2-23.5,3.6-35.2-0.4c-12.8-4.5-23.4-12.4-32.1-22.7c-11.3-13.3-18.3-28.7-21.2-45.9
		c-0.3-2-0.5-4.1-0.8-6.1c-0.1-0.9-0.4-1.8-0.7-2.8C28,240,28,236.4,28,232.7z"/>
	<path class="st0" d="M472,239.7c-0.1,0.9-0.3,1.7-0.3,2.6c-0.3,21-11.4,50.8-35.8,68.8c-8.1,6-16.9,10.2-26.9,12.1
		c-20.7,4-40.4-4.3-52-22c-5.6-8.6-8.8-18.1-10.2-28.3c-3.8-27.5,7.1-56.8,25.7-75.7c9.3-9.4,20.1-16.5,33.1-19.8
		c24.2-6.2,47.2,4.3,58.6,26.7c4.7,9.1,7.2,18.8,7.5,29.1c0,1.1,0.2,2.2,0.3,3.2C472,237.6,472,238.7,472,239.7z"/>
	<path class="st0" d="M250.3,198.8c17.3,0,32.8,5,46.2,16.1c9.6,7.9,16.3,17.9,21.2,29.3c3.5,8.1,5.7,16.7,7.4,25.3
		c3.4,17,9.7,32.8,20.1,46.8c5.7,7.7,12.4,14.5,19.3,21.1c5.7,5.5,11.5,10.9,17,16.6c7.3,7.5,13.3,16.1,17.2,25.9
		c3.4,8.6,5.6,17.5,5.6,26.9c0,15.9-6.8,28.3-20.1,36.9c-7.5,4.8-15.7,7.7-24.4,9.3c-6.9,1.3-13.8,1.7-20.8,1.1
		c-3.3-0.3-6.6-0.9-9.9-1.7c-7.3-1.8-14.6-3.2-22-4c-10.5-1.1-21-2.2-31.5-3c-8.3-0.6-16.6-1-24.9-1.1c-6.7-0.1-13.4,0.4-20.1,0.8
		c-6.6,0.4-13.1,0.8-19.6,1.4c-13.9,1.2-27.8,2.8-41.4,6.3c-5.5,1.4-11.1,1.7-16.7,1.6c-10.7-0.3-21.1-2.5-30.8-7.2
		c-7.5-3.6-14-8.5-18.8-15.3c-5.8-8.2-8-17.3-7.5-27.2c0.9-17.5,7.3-32.7,18.6-46.1c5.3-6.3,11.4-11.9,17.4-17.6
		c5.7-5.3,11.3-10.7,16.5-16.5c12.9-14.4,21.2-31.2,25.7-49.9c1.4-6.1,2.6-12.2,4.3-18.2c3.3-11.8,8.5-22.8,16.4-32.3
		c11.1-13.3,25.3-21.2,42.3-24.2C241.5,199.1,245.9,198.7,250.3,198.8z"/>
	<path class="st0" d="M264.1,131.6c0.6-23.7,7.2-43.5,21.2-60.7c8-9.9,17.8-17.5,29.9-21.9c14.9-5.4,29.3-4.7,43.2,3.3
		c9.5,5.5,16.3,13.5,21.3,23.2c4.5,8.8,7.1,18.2,7.9,28.1c1.9,24.8-4.8,47-20.1,66.5c-7.8,9.9-17.5,17.6-29.4,22.2
		c-13.2,5.1-26.4,5.3-39.4-0.5c-9.6-4.2-16.9-11.1-22.6-19.8c-5.6-8.6-9-18.1-10.5-28.2C264.6,139.2,264.4,134.6,264.1,131.6z"/>
	<path class="st0" d="M112.3,111.8c0.2-14.1,3-27.4,10.2-39.5c5.7-9.7,13.4-17.4,23.8-22.1c13.4-6.1,27-5.8,40.5-0.3
		c11.4,4.6,20.6,12,28.3,21.4c10.1,12.3,16.3,26.4,19.3,42c1.6,8.6,2.1,17.2,1.1,25.9c-1.6,14.5-6.3,27.8-15.9,39.1
		c-7.8,9.2-17.7,15-29.6,17.1c-9.9,1.7-19.5,0.3-28.7-3.5c-12-5-21.7-13-29.6-23.2c-9.4-12.2-15.2-26-17.9-41.2
		C112.8,122.3,112.4,116.9,112.3,111.8z"/>
</g>
</svg>
