<?xml version="1.0" encoding="utf-8"?>
<!-- Generator: Adobe Illustrator 22.0.0, SVG Export Plug-In . SVG Version: 6.00 Build 0)  -->
<svg version="1.1" id="Capa_1" xmlns="http://www.w3.org/2000/svg" xmlns:xlink="http://www.w3.org/1999/xlink" x="0px" y="0px"
	 viewBox="0 0 500 500" style="enable-background:new 0 0 500 500;" xml:space="preserve">
<style type="text/css">
	.st0{fill:#E69523;}
</style>
<g>
	<path d="M77.9,253.4c0,0,7.6,32.9-15.7,25c0,0-12.4,15.6-13,25.8h52.5c0,0,6.2-7-3.5-10.3c0,0-3.5-1.3-10.9-0.7
		c0,0,3.1-4.7,12.4-7.8l-18.1-0.7l14.1-5.9l-11.2-6l9.2-1.5c0,0,5.2-0.8-0.9-5.6C92.9,265.7,80.6,260.5,77.9,253.4"/>
	<path d="M118.2,279.9c0,0,9.7,3.2,15.8-2.9c0,0,1.8,8.4,4.1,11c2.3,2.6,2.7,4.4,3.3,16.3h-22.6c0,0-5.8-5.8,0.4-7.5l11.4-0.2
		c0,0-0.2-5.5-11.3-6.6c0,0,8.8-3.4,9.8-4.4c0,0-8.8-0.8-10.8-2.7L118.2,279.9z"/>
	<path class="st0" d="M192.5,252c7.1,0,12.5,1.3,16.3,3.8c3.8,2.5,5.7,6.5,5.7,11.8c0,3.3-0.8,6-2.3,8.1c-1.5,2.1-3.7,3.7-6.6,4.9
		c1,1.2,2,2.5,3,4.1c1,1.5,2.1,3.1,3.1,4.8c1,1.7,2,3.4,3,5.2c1,1.8,1.8,3.6,2.7,5.3h-11.9c-0.9-1.5-1.7-3.1-2.6-4.7
		c-0.9-1.6-1.8-3.1-2.7-4.6c-0.9-1.5-1.9-2.9-2.8-4.3c-0.9-1.3-1.8-2.6-2.7-3.7h-5.3v17.3h-10.7v-46.7c2.3-0.5,4.7-0.8,7.2-1
		C188.3,252.1,190.5,252,192.5,252 M193.1,261.1c-0.8,0-1.5,0-2.1,0.1c-0.6,0-1.2,0.1-1.7,0.1v12.8h3c4,0,6.9-0.5,8.6-1.5
		c1.7-1,2.6-2.7,2.6-5.1c0-2.3-0.9-4-2.6-5C199.1,261.6,196.5,261.1,193.1,261.1"/>
	<polygon class="st0" points="223.9,299.9 223.9,252.6 255.9,252.6 255.9,261.5 234.6,261.5 234.6,270.8 253.5,270.8 253.5,279.6 
		234.6,279.6 234.6,291 257.5,291 257.5,299.9 	"/>
	<polygon class="st0" points="265,299.9 265,252.6 296.7,252.6 296.7,261.5 275.7,261.5 275.7,271.4 294.4,271.4 294.4,280.4 
		275.7,280.4 275.7,299.9 	"/>
	<path class="st0" d="M375.1,260.8c-5,0-8.5,1.4-10.8,4.1c-2.2,2.8-3.3,6.5-3.3,11.3c0,2.3,0.3,4.4,0.8,6.3c0.5,1.9,1.4,3.5,2.5,4.9
		c1.1,1.4,2.5,2.4,4.1,3.2c1.6,0.8,3.5,1.1,5.7,1.1c1.2,0,2.2,0,3-0.1c0.8,0,1.6-0.1,2.2-0.3v-16.5H390v23.4c-1.3,0.5-3.3,1-6.1,1.6
		c-2.8,0.6-6.3,0.9-10.5,0.9c-3.5,0-6.8-0.5-9.7-1.6c-2.9-1.1-5.4-2.7-7.4-4.8s-3.6-4.7-4.7-7.7c-1.1-3.1-1.7-6.5-1.7-10.5
		c0-4,0.6-7.5,1.8-10.5c1.2-3.1,2.9-5.6,5.1-7.8c2.1-2.1,4.7-3.7,7.5-4.8c2.9-1.1,6-1.6,9.3-1.6c2.2,0,4.2,0.1,6,0.4
		c1.8,0.3,3.3,0.6,4.6,1c1.3,0.4,2.4,0.8,3.2,1.2c0.8,0.4,1.4,0.7,1.8,1l-3.1,8.5c-1.5-0.8-3.1-1.4-5-2
		C379.4,261.1,377.3,260.8,375.1,260.8"/>
	<rect x="399.7" y="252.6" class="st0" width="10.7" height="47.3"/>
	<path class="st0" d="M466.1,276.2c0,4.1-0.6,7.6-1.8,10.7c-1.2,3.1-2.9,5.6-5,7.7c-2.1,2.1-4.6,3.6-7.5,4.7c-2.9,1-6,1.6-9.3,1.6
		c-3.2,0-6.3-0.5-9.2-1.6c-2.9-1-5.4-2.6-7.5-4.7c-2.1-2.1-3.8-4.6-5.1-7.7c-1.2-3.1-1.8-6.6-1.8-10.7c0-4.1,0.6-7.6,1.9-10.7
		c1.3-3.1,3-5.7,5.2-7.8c2.2-2.1,4.7-3.7,7.5-4.7c2.8-1,5.8-1.6,9-1.6c3.2,0,6.3,0.5,9.2,1.6c2.9,1,5.4,2.6,7.5,4.7
		c2.1,2.1,3.8,4.7,5.1,7.8C465.5,268.6,466.1,272.2,466.1,276.2 M429.9,276.2c0,2.3,0.3,4.4,0.9,6.3c0.6,1.9,1.4,3.5,2.5,4.8
		c1.1,1.3,2.4,2.4,3.9,3.1c1.5,0.7,3.3,1.1,5.3,1.1c2,0,3.7-0.4,5.3-1.1c1.6-0.7,2.9-1.8,4-3.1c1.1-1.3,1.9-2.9,2.5-4.8
		c0.6-1.9,0.9-4,0.9-6.3c0-2.3-0.3-4.4-0.9-6.3c-0.6-1.9-1.4-3.5-2.5-4.9c-1.1-1.3-2.4-2.4-4-3.1c-1.6-0.7-3.3-1.1-5.3-1.1
		c-2,0-3.8,0.4-5.3,1.1c-1.5,0.8-2.9,1.8-3.9,3.1c-1.1,1.3-1.9,3-2.5,4.9C430.2,271.8,429.9,273.9,429.9,276.2"/>
	<path d="M164.9,234.8v-16.1c0-2.7-4.1-5.3-4.1-5.3s-3.2-2.3-7.9-10.2c-4.7-7.9-13.8-13.7-13.8-13.7c-2.5-1.8-11.4-4-18.5,0.8
		c-4.5,5-14.7,5.1-14.7,5.1c-13.1,1.1-25.1,10.7-27,12.1c-2.8,1.9,0.4,2.2-13,4.1c-13.5,2-15.4,14.3-15.4,14.3s-0.9,10-4.8,15.8
		c-3.9,5.7,0.9,10.9,0.9,10.9c0.5,0.6,4.1,6.5,6.4,10.3c2.3,3.8,9.3,10.9,9.3,10.9c10.5,7.5,13.1-5.9,13.1-5.9l0.3-8.1
		c0.2-2.8-1.5-11-1.5-11c-0.6-1.1-2.4-13.3-2.4-13.3l0-7.9c1.2-3.6,2-0.1,2-0.1l0.3,5.6c0,0,0.8,6.7,2,11.8c1.2,5.1,5.1,9.6,5.1,9.6
		c1.8,3.2,13.5,9.6,13.5,9.6c2.9,1.3,8.6,7.8,8.6,7.8c5.1,7.5,11.5,4.5,12.1,4.1c0.6-0.4,0.9-0.3,0.9-0.3c13,4.9,18.8-5.1,18.8-5.1
		c5.2-1.1,5.7-2.3,5.7-2.3c5.1-3.9,1.8-13.5,0.9-16c-0.9-2.5-2.1-9.6-2.1-9.6s-0.6-19.8-0.6-21.1c0-1.3-1.7-8.3-1.7-8.3
		c-0.6-4.2-4.4-7.6-6.1-8.5c-1.7-0.8,0.5-1.1,0.5-1.1c7.5,1.2,7.9,8.6,8,8.9c0.1,0.3,2.7,18.9,2.7,18.9c0.6,8.7,17.3,17.6,17.3,17.6
		s4.8,1.9,5.7-2.7C166.4,241.7,164.9,234.8,164.9,234.8 M81.8,234.4c0,0-0.4,1.2-0.6-0.5c-0.1-1.7,0-2.9,0.3-4.3
		c0.4-1.8,2.7-4.4,3.8-5c2.9-1.9,5.5-0.9,5.8-0.6c2.6,2.6-0.3,2.6-0.3,2.6c-6.8-0.3-8.1,4.2-8.4,5.1
		C81.9,232.8,81.8,234.4,81.8,234.4 M93,233.9c0.5,1.1-0.3,2.4-1.6,3c-1.4,0.6-2.8,0.2-3.3-0.9c-0.5-1.1,0.3-2.4,1.7-3
		C91.1,232.4,92.5,232.8,93,233.9 M96.9,239.2c-1,2.7-5.6,3.3-7.2,3.4c-1,0-4.5,0.2-5.9-2.6c0,0-0.7-1.3,1.8-4.2l1.1-1.4
		c0,0,1.4-2.3,0.3,0.1c0,0-1.8,2.7-0.3,3.7c0.6,0.6,5.3,2.7,7.9-0.8c0,0,1.6-2.1-1-4.3c0,0-2.6-1.4,0.3-0.6c2.8,0.8,3.3,2.2,3.3,2.2
		S97.9,236.5,96.9,239.2 M127.1,274c-1.7,0.6-6.9,0.1-6.9,0.1s8-4.2,11.2-3.9C131.5,270.2,130.3,272.8,127.1,274 M138.1,250.1
		c0.3,0.3,3,7.1,1.9,11.7c-1.1,4.7-3.4,5.6-5.2,6.1c-1.1,0.3-4.2-0.3-7.1,0.9c0,0,0.4-2.3,4.1-3.3c2.8-0.8,2.8-1.9,3.1-2.5
		c0.5-1.9,0.2-6.1,0-6.5c-0.1-0.5-1.3-4.9-5-5.9c0,0-2.6-0.6-4.4,0.3c-1.7,0.9-3.4,3.2-6.1,3.5c-2.6,0.3-6.2-0.9-8.5,3.7
		c0,0-1.3,5,0.4,7.6c1.7,2.6,4.1,4.5,7.9,4c0,0,5.1-1.4,7.1-0.6c0,0-7.1,3.3-9.3,3.6c-2.2,0.3-6.1,1-8.5-0.5
		c-2.4-1.5-4.9-5.4-5.6-8.3c0,0-1.2-5.1-0.9-7.7c0.3-2.6,0.3-4.8,0.3-4.8s0.9-8.5,1-10.5c0-0.8-0.3-7.3-0.6-9.9
		c0,0-0.2-8.1-5.9-10.8c-5.7-2.7-6.5-3-6.5-3l-1.2-0.3c0,0,0.6-1.2,1.8-1.7c2.4-1,4.6-1.5,7.2-0.2c0,0,0.6-0.2-0.4-1
		c-0.9-0.8-3.9-4.5-9-6.5l-0.4-0.2c0,0,2.7-0.7,4.9-0.4c2.2,0.4,6.3,1.9,7.5,3.3c0,0,0.2,0.2,0.2-0.7c0-1,0.6-6.7,2.4-8
		c0,0,2.4,5.4,3.2,6.8c0.8,1.4,1-0.4,1-0.4s0.6-4.3,6.1-5.2c0,0-3.1,9-2.9,10.9c0,1.1,0,6.7,0.2,8c0.2,1.4,0.9,5.2,4.1,7.8
		c0.8,0.7,6,5.6,10.4,8.2C130.1,240.4,136.9,247.2,138.1,250.1 M126.2,261.5c-0.7-0.9-0.6-1.4,0.5-0.8c1.6,0.9,2.6,0.4,2.6,0.4
		s1.4-0.3,2.3-2.7c0.9-2.4,1.3,0.4,1.3,0.4s0.5,2.2-2.5,3.4C127.5,263.4,126.6,262,126.2,261.5 M119.6,266.3c-3,1.2-4.7-0.9-4.7-0.9
		s-1.6-2.3,0.7-1.2c2.3,1.1,3.7,0.5,3.7,0.5s1.4-0.3,2-2.1c0.4-1.2,0.8-0.9,0.9,0.2C122.2,263.5,122.5,265.1,119.6,266.3
		 M133.9,223.1c-0.3,1.3-2.1,4-4.7,4.9c-2.6,0.9-5.4,0.4-7.1-0.6c-1.8-1-1.2-4.2-1.2-4.2c1.2-3.8,1,0,1,0c0.9,3.2,5.2,2.4,5.2,2.4
		s3.4-0.8,3.5-3.7c0.1-2.9-2.1-2.8-3.7-3.1c-1.6-0.4-0.4-0.5-0.4-0.5s5.4-0.7,6.9,0.6C134.7,220.2,134.2,221.9,133.9,223.1
		 M124.4,219.4c1.4-0.6,2.8-0.2,3.3,0.9c0.5,1.1-0.3,2.4-1.7,3c-1.4,0.6-2.8,0.2-3.3-0.9C122.3,221.4,123,220,124.4,219.4
		 M130.9,211.7c3.6,4-0.4,1.7-1.4,1.2c-2.8-1.1-5.5-0.2-7.1,0.2c-3.5,0.6-1.8-2.2-0.9-2.8C122.6,209.4,127.3,207.6,130.9,211.7"/>
	<path class="st0" d="M322.5,300.9c-3.3,0-6.2-0.5-8.6-1.4s-4.4-2.2-6-3.9c-1.6-1.7-2.7-3.6-3.5-5.9c-0.8-2.3-1.1-4.8-1.1-7.6v-29.4
		H314v28.6c0,1.9,0.2,3.5,0.7,4.9c0.4,1.3,1,2.4,1.8,3.3c0.8,0.8,1.7,1.4,2.7,1.8c1.1,0.4,2.2,0.5,3.5,0.5c2.6,0,4.7-0.8,6.3-2.4
		c1.6-1.6,2.4-4.3,2.4-8.1v-28.6H342V282c0,2.8-0.4,5.3-1.2,7.6c-0.8,2.3-2,4.3-3.5,6c-1.6,1.7-3.6,2.9-6.1,3.9
		C328.8,300.4,325.9,300.9,322.5,300.9"/>
	<g>
		<path d="M178.4,241.2v-32.7h22.1v6.2h-14.7v6.4h13.1v6h-13.1v7.9h15.8v6.2H178.4z"/>
		<path d="M228.8,234.9v6.3h-21.9v-32.7h7.4v26.4H228.8z"/>
		<path d="M259.5,241.9c-5.3,0-9.4-1.5-12.2-4.4c-2.8-3-4.2-7.2-4.2-12.6c0-2.7,0.4-5.1,1.3-7.3c0.9-2.1,2-3.9,3.5-5.4
			c1.5-1.5,3.2-2.6,5.3-3.3s4.3-1.1,6.7-1.1c1.4,0,2.6,0.1,3.8,0.3c1.1,0.2,2.1,0.4,3,0.7c0.9,0.3,1.6,0.5,2.1,0.8
			c0.6,0.3,1,0.5,1.2,0.7l-2.1,6c-1-0.5-2.2-1-3.5-1.4s-2.9-0.6-4.6-0.6c-1.1,0-2.2,0.2-3.3,0.6c-1.1,0.4-2,1-2.9,1.8
			c-0.8,0.8-1.5,1.9-2,3.2c-0.5,1.3-0.8,2.9-0.8,4.8c0,1.5,0.2,2.9,0.5,4.2c0.3,1.3,0.9,2.4,1.6,3.4c0.7,0.9,1.7,1.7,2.9,2.2
			c1.2,0.6,2.6,0.8,4.3,0.8c1.1,0,2-0.1,2.9-0.2c0.9-0.1,1.6-0.3,2.3-0.4c0.7-0.2,1.2-0.4,1.7-0.6c0.5-0.2,1-0.4,1.4-0.6l2,5.9
			c-1,0.6-2.5,1.2-4.4,1.7C264.1,241.6,262,241.9,259.5,241.9z"/>
		<path d="M298.2,241.2c-0.4-1.1-0.8-2.3-1.2-3.5c-0.4-1.2-0.8-2.4-1.3-3.6H283c-0.4,1.2-0.8,2.4-1.2,3.6s-0.8,2.4-1.2,3.5H273
			c1.2-3.5,2.4-6.8,3.5-9.8c1.1-3,2.2-5.8,3.2-8.5c1.1-2.6,2.1-5.2,3.1-7.5c1-2.4,2.1-4.7,3.2-7h7c1.1,2.3,2.1,4.6,3.2,7
			c1,2.4,2.1,4.9,3.2,7.5s2.1,5.5,3.3,8.5c1.1,3,2.3,6.3,3.5,9.8H298.2z M289.4,215.9c-0.2,0.5-0.4,1.1-0.7,1.9
			c-0.3,0.8-0.7,1.8-1.1,2.8s-0.9,2.3-1.4,3.5c-0.5,1.3-1,2.6-1.5,4.1h9.4c-0.5-1.4-1-2.8-1.5-4.1c-0.5-1.3-0.9-2.5-1.3-3.5
			c-0.4-1.1-0.8-2-1.1-2.8C289.8,217,289.6,216.4,289.4,215.9z"/>
		<path d="M318.8,208.5c0.6,1,1.2,2.3,2,3.8c0.7,1.5,1.5,3.2,2.3,5c0.8,1.8,1.6,3.6,2.4,5.5c0.8,1.9,1.5,3.6,2.2,5.2
			c0.7-1.6,1.4-3.4,2.2-5.2c0.8-1.9,1.6-3.7,2.4-5.5c0.8-1.8,1.6-3.4,2.3-5c0.7-1.5,1.4-2.8,2-3.8h6.7c0.3,2.2,0.6,4.6,0.9,7.3
			c0.3,2.7,0.5,5.5,0.7,8.4c0.2,2.9,0.4,5.8,0.6,8.8c0.2,2.9,0.3,5.7,0.4,8.3h-7.2c-0.1-3.2-0.2-6.6-0.4-10.4
			c-0.2-3.7-0.4-7.5-0.7-11.3c-0.6,1.3-1.2,2.8-1.9,4.4c-0.7,1.6-1.4,3.2-2.1,4.8c-0.7,1.6-1.3,3.1-2,4.6s-1.2,2.7-1.6,3.8H325
			c-0.4-1-1-2.3-1.6-3.8s-1.3-3-2-4.6c-0.7-1.6-1.4-3.2-2.1-4.8c-0.7-1.6-1.3-3.1-1.9-4.4c-0.3,3.8-0.6,7.6-0.7,11.3
			c-0.2,3.7-0.3,7.2-0.4,10.4h-7.2c0.1-2.6,0.3-5.3,0.4-8.3c0.2-2.9,0.4-5.8,0.6-8.8c0.2-2.9,0.4-5.7,0.7-8.4
			c0.3-2.7,0.6-5.1,0.9-7.3H318.8z"/>
		<path d="M362.2,208.1c4.9,0,8.6,0.9,11.2,2.6c2.6,1.7,3.9,4.5,3.9,8.4c0,3.9-1.3,6.8-4,8.5c-2.6,1.7-6.4,2.6-11.3,2.6h-2.3v11
			h-7.4v-32.3c1.6-0.3,3.3-0.5,5.1-0.7C359.3,208.2,360.8,208.1,362.2,208.1z M362.7,214.4c-0.5,0-1.1,0-1.6,0c-0.5,0-1,0.1-1.3,0.1
			v9.4h2.3c2.6,0,4.5-0.3,5.8-1c1.3-0.7,1.9-2,1.9-3.9c0-0.9-0.2-1.7-0.5-2.3s-0.8-1.1-1.4-1.4c-0.6-0.4-1.4-0.6-2.2-0.8
			C364.7,214.5,363.7,214.4,362.7,214.4z"/>
		<path d="M382.7,208.5h7.4v32.7h-7.4V208.5z"/>
		<path d="M421.7,208.5v6.3h-9.9v26.5h-7.4v-26.5h-9.9v-6.3H421.7z"/>
		<path d="M456.3,224.8c0,2.8-0.4,5.3-1.3,7.4c-0.8,2.1-2,3.9-3.4,5.3c-1.4,1.4-3.2,2.5-5.2,3.2c-2,0.7-4.1,1.1-6.4,1.1
			c-2.2,0-4.3-0.4-6.3-1.1c-2-0.7-3.7-1.8-5.2-3.2c-1.5-1.4-2.6-3.2-3.5-5.3c-0.8-2.1-1.3-4.6-1.3-7.4c0-2.8,0.4-5.3,1.3-7.4
			c0.9-2.1,2.1-3.9,3.6-5.4c1.5-1.4,3.2-2.5,5.2-3.3c2-0.7,4-1.1,6.2-1.1c2.2,0,4.3,0.4,6.3,1.1c2,0.7,3.7,1.8,5.2,3.3
			c1.5,1.4,2.6,3.2,3.5,5.4C455.9,219.6,456.3,222,456.3,224.8z M431.3,224.8c0,1.6,0.2,3.1,0.6,4.3c0.4,1.3,1,2.4,1.7,3.3
			c0.7,0.9,1.6,1.6,2.7,2.1c1.1,0.5,2.3,0.8,3.7,0.8c1.4,0,2.6-0.3,3.7-0.8c1.1-0.5,2-1.2,2.7-2.1c0.7-0.9,1.3-2,1.7-3.3
			c0.4-1.3,0.6-2.7,0.6-4.3s-0.2-3.1-0.6-4.4s-1-2.4-1.7-3.4c-0.7-0.9-1.7-1.6-2.7-2.1c-1.1-0.5-2.3-0.8-3.7-0.8
			c-1.4,0-2.6,0.3-3.7,0.8c-1.1,0.5-2,1.2-2.7,2.2c-0.7,0.9-1.3,2-1.7,3.4C431.5,221.8,431.3,223.2,431.3,224.8z"/>
	</g>
</g>
<g>
</g>
<g>
</g>
<g>
</g>
<g>
</g>
<g>
</g>
<g>
</g>
</svg>
