<?xml version="1.0" encoding="utf-8"?>
<!-- Generator: Adobe Illustrator 22.0.0, SVG Export Plug-In . SVG Version: 6.00 Build 0)  -->
<svg version="1.1" id="Capa_1" xmlns="http://www.w3.org/2000/svg" xmlns:xlink="http://www.w3.org/1999/xlink" x="0px" y="0px"
	 viewBox="0 0 104 112" style="enable-background:new 0 0 104 112;" xml:space="preserve">
<style type="text/css">
	.st0{fill:#FFFFFF;}
</style>
<path class="st0" d="M28,14.6v1.9c4.1,0,8.2,1.1,12,3.4c4,2.3,6.9,5.2,8.9,8.8c0.1,0.3,0.3,0.4,0.4,0.5c0.4,0.5,0.9,0.8,1.5,0.8h0
	c0.6,0,1.2-0.3,1.5-0.8c0.4-0.5,0.7-1,1-1.4c0.7-1,1.4-2,2.2-2.9C60,19.8,67,16.6,74,16.6c2.3,0,4.5,0.3,6.6,1
	c11,3.7,17.9,13.9,17.1,25.6c-0.5,7.5-3,14.9-7.7,22.4c-5.2,8.3-12.1,15.9-21.7,24c-5.5,4.6-11.3,8.8-17.2,12.4
	c-13.8-8.7-24.7-18-33.2-28.5C11.4,65.5,7.5,58.1,5.5,50.2c-1.6-6.8-1.5-12.6,0.4-18C9.2,23.1,18.5,16.5,28,16.5L28,14.6 M51.1,46.1
	c-0.6-2.5-1.7-4.7-3.2-6.3c-1.4-1.5-3.1-2.3-4.9-2.3c-2.3,0-4.4,1.4-5.6,3.8c-0.6,1.2-1,2.6-1.1,4c-0.3,3.7,0.8,7,3.3,9.6
	c1.3,1.4,3,2.2,4.7,2.2c-1.8,1.1-3.4,2.4-4.8,4c0-0.1,0.1-0.3,0.1-0.4c0.1-0.4,0.1-0.8,0.1-1.1c0-0.1,0-0.1,0-0.2c0-0.1,0-0.1,0-0.2
	c0-3.8-2.1-7.7-5.2-9.6c-1.2-0.7-2.4-1.1-3.7-1.1c-2.9,0-5.1,2.1-5.7,5.2c-0.7,4.2,1.7,9.3,5.5,11.4c1,0.5,2.1,0.8,3.1,0.8
	c0.8,0,1.6-0.2,2.3-0.5c-1.6,2.5-2.3,5.1-2.2,7.8c0,0,0,0.1,0,0.1l0,0.1c0,0.2,0,0.5,0.1,0.8c0.4,4.3,3,6.8,7.2,6.8
	c0.1,0,0.3,0,0.4,0c1.9-0.1,3.7-0.3,5.4-0.8c1.3-0.4,2.6-0.5,3.9-0.5c1.3,0,2.7,0.2,4.1,0.6c1.8,0.5,3.9,0.7,6.2,0.8l0.2,0
	c3.1,0,5.4-1.8,6.3-5c0.6-2.2,0.6-4.3,0-6.3c-0.5-1.6-1.1-3.1-1.9-4.5c0.7,0.4,1.6,0.6,2.5,0.6c1.3,0,2.6-0.4,3.8-1.2
	c3-2,4.8-5.1,5-8.7c0,0,0-0.1,0-0.1c0-4.9-2.2-6.5-3.5-7c-0.8-0.3-1.5-0.5-2.3-0.5c-1.6,0-3.2,0.7-4.7,2c-2.9,2.6-4.3,5.9-4,9.6
	c0,0.4,0.1,0.7,0.2,1.1c-1.4-1.5-3.1-2.8-5-4c0,0,0.1,0,0.1,0c1.5,0,3-0.6,4.3-1.7c3.8-3.2,5-10.1,2.6-14.4
	c-1.2-2.2-3.3-3.5-5.6-3.5c-1.9,0-3.7,0.9-5,2.5C52.4,41.7,51.5,43.6,51.1,46.1 M51,50.2c0,0.1,0.1,0.2,0.1,0.3
	c0.3,1,0.6,2.3,1.4,3.5c0.2,0.3,0.4,0.6,0.6,0.9c-0.7-0.2-1.4-0.3-2.1-0.3c-0.6,0-1.3,0.1-1.9,0.3c0.4-0.5,0.7-1,1-1.6
	C50.5,52.2,50.7,51.2,51,50.2 M28,14.6c-11,0-20.6,7.6-23.9,17c-2.3,6.3-2,12.7-0.5,19.1c2.2,9.1,6.9,16.8,12.7,24
	c9.5,11.7,21.2,21.1,33.9,29c0.3,0.2,0.6,0.3,0.8,0.3c0.3,0,0.5-0.1,0.8-0.3c6.2-3.8,12-8,17.6-12.6c8.5-7.1,16.2-14.9,22.1-24.4
	c4.4-7.1,7.4-14.8,8-23.3c0.9-12.6-6.5-23.6-18.4-27.6c-2.3-0.8-4.8-1.1-7.2-1.1c-7.4,0-15,3.3-19.8,9.1c-1.2,1.4-2.2,2.9-3.3,4.4
	c-0.1-0.1-0.2-0.2-0.2-0.3c-2.3-4.1-5.6-7.2-9.6-9.5C36.7,15.7,32.2,14.6,28,14.6 M57.6,55.2c-1.4,0-2.7-0.7-3.5-2.1
	c-0.8-1.4-1.1-3-1.4-3.8c0.1-3.5,0.9-5.9,2.6-8c1-1.2,2.3-1.8,3.6-1.8c1.5,0,3,0.9,3.9,2.6c2,3.6,0.9,9.4-2.2,12
	C59.7,54.8,58.6,55.2,57.6,55.2 M44.4,55.1c-1.2,0-2.4-0.5-3.4-1.6c-2.1-2.3-3-5-2.8-8.1c0.1-1.1,0.4-2.3,0.9-3.3
	c0.9-1.8,2.3-2.7,3.9-2.7c1.2,0,2.4,0.5,3.5,1.7c1.7,1.8,2.8,4.6,3,7.3c-0.4,1.3-0.6,2.7-1.2,4C47.4,54.2,45.9,55.1,44.4,55.1
	 M68.2,64c-2,0-3.6-1.5-3.8-4.1c-0.3-3.2,1-5.9,3.4-8c1-0.9,2.1-1.5,3.4-1.5c0.5,0,1,0.1,1.6,0.3c1.5,0.6,2.3,2.4,2.3,5.2
	c-0.1,2.7-1.4,5.3-4.1,7.1C69.9,63.7,69,64,68.2,64 M33.8,63.9c-0.7,0-1.5-0.2-2.2-0.6c-3.1-1.6-5.1-5.9-4.5-9.3
	c0.4-2.3,1.9-3.6,3.8-3.6c0.8,0,1.7,0.3,2.6,0.8c2.5,1.6,4.3,4.8,4.3,8c0,0.2,0,0.7-0.1,1.1C37.2,62.6,35.7,63.9,33.8,63.9
	 M41.1,79.2c-3.2,0-5-1.8-5.3-5.1c0-0.4-0.1-0.8-0.1-0.9c-0.1-2.7,0.7-4.8,2-6.8c2.7-4.3,6.3-7.4,10.9-9.4c0.7-0.3,1.5-0.5,2.2-0.5
	c0.7,0,1.4,0.2,2.2,0.5c6,2.7,10.6,6.9,12.6,13.4c0.5,1.7,0.4,3.5,0,5.2c-0.6,2.2-2.1,3.6-4.4,3.6c0,0-0.1,0-0.1,0
	c-1.9,0-3.9-0.2-5.7-0.7c-1.5-0.4-3.1-0.6-4.6-0.6c-1.5,0-2.9,0.2-4.4,0.6c-1.6,0.5-3.3,0.7-5,0.8C41.3,79.2,41.2,79.2,41.1,79.2"/>
</svg>
