<?xml version="1.0" encoding="utf-8"?>
<!-- Generator: Adobe Illustrator 22.0.0, SVG Export Plug-In . SVG Version: 6.00 Build 0)  -->
<svg version="1.1" id="Capa_1" xmlns="http://www.w3.org/2000/svg" xmlns:xlink="http://www.w3.org/1999/xlink" x="0px" y="0px"
	 viewBox="0 0 200 104.5" style="enable-background:new 0 0 200 104.5;" xml:space="preserve">
<style type="text/css">
	.st0{fill:#FF9700;}
</style>
<g>
	<path class="st0" d="M96.5,5.7C96.7,5.9,96.9,6,97,6.1c0.4,2.3,1.8,4.1,2.9,6c2.8,4.9,5.7,9.8,8.4,14.8c0.8,1.5,1.1,3.2,1.5,4.9
		c0.1,0.5,0.3,0.8,0.8,1c2.2,0.8,4.4,1.5,6.5,2.4c3.3,1.5,6.3,3.6,8.4,6.6c3,4.2,2.6,9.2-0.7,13c-2.6,3-5.8,5.1-9.5,6.4
		c-2.5,0.9-5.2,1.7-7.8,2.3c-5.6,1.4-11.3,1.4-17,0.9c-3.8-0.4-7.5-1.1-11.1-2.4c-4.3-1.5-8.3-3.6-11.5-7.1c-1.7-2-2.8-4.2-2.9-6.9
		c-0.1-2.9,1.1-5.3,2.9-7.4c2.5-2.8,5.6-4.7,9.1-6.1c1.6-0.6,3.2-1.1,4.8-1.7c0.4-0.1,0.8-0.2,0.8,0.4c0,3.4,1.5,6.2,3.2,9
		c2.9,4.9,5.8,9.9,8.6,14.9c0.5,0.8,0.7,1.7,1.1,2.6c0.1,0.2,0.2,0.5,0.3,0.7c0.1,0,0.2,0,0.3,0.1c0.4-0.8,0.8-1.7,1.2-2.5
		c0.8-1.9,1.1-4,0.7-6c-0.3-1.8-0.9-3.6-1.8-5.2c-2.2-4.2-4.6-8.3-7.1-12.3c-1.9-3.2-3-6.6-2.3-10.3c0.3-1.5,1-2.9,1.6-4.4
		c0.1-0.1,0.2-0.2,0.4-0.4c0.4,0.9,0.6,1.8,1,2.6c1.4,2.6,2.8,5.1,4.3,7.6c1.8,3.1,3.6,6.2,5.4,9.3c1,1.8,2.1,3.6,3.1,5.5
		c0.3,0.5,0.4,1.1,0.7,1.6c0.1,0.3,0.3,0.6,0.5,1.1c0.4-0.6,0.7-1,0.9-1.5c1.2-2.4,1.4-5.1,1.1-7.7c-0.3-2.2-1.2-4.1-2.3-6
		c-1.9-3.2-3.8-6.5-5.7-9.8c-1-1.8-2-3.6-2.7-5.5c-0.7-1.9-0.8-4-0.4-6.1C95,8.8,95.7,7.3,96.5,5.7z"/>
	<path class="st0" d="M146.4,96.3c-0.5,0.4-0.9,1-1.5,1.3c-2.7,1.6-5.4,1.4-8,0c-2.2-1.2-3.2-3.3-3.8-5.6c-0.5-2.3-0.5-4.5,0-6.8
		c0.7-3.3,2.6-5.6,5.8-6.6c1.7-0.5,3.5-0.5,5.3-0.7c0.4,0,0.9,0.2,1.4,0.2c0.7,0.1,1.1-0.1,1.1-0.9c0-1.5,0-2.9,0-4.4
		c0-0.8,0.3-1.2,1.1-1.2c0.7-0.1,1.3-0.2,2-0.2c0.9-0.1,1,0.1,1,0.9c0,2.5,0,5,0,7.6c0,5.7,0,11.4,0,17.1c0,1.1-0.1,1.2-1.2,1.2
		c-0.1,0-0.1,0-0.2,0c-0.7,0-1.5,0.2-2-0.1C146.9,97.8,146.7,96.9,146.4,96.3z M146.6,87.9C146.6,87.9,146.6,87.9,146.6,87.9
		c0-1.7,0-3.3,0-5c0-0.6-0.1-1-0.9-1.2c-1.5-0.3-3-0.3-4.6,0c-2.3,0.5-4,2.8-4.1,5c0,1.2,0,2.5,0,3.7c0.1,1.4,0.7,2.5,1.6,3.5
		c1.8,1.9,5.7,1.5,7.4,0c0.2-0.2,0.4-0.7,0.4-1C146.6,91.2,146.6,89.6,146.6,87.9z"/>
	<path class="st0" d="M20.9,98.7c-2.5,0.1-4.8-0.2-7-1.1c-0.6-0.2-0.8-0.5-0.7-1.1c0.1-0.7,0.2-1.5,0.4-2.2c0.1-0.4,0.3-0.7,1-0.5
		c2.9,1,5.9,1.7,8.9,0.9c1-0.3,2-0.6,2.5-1.7c0.8-1.5,0.5-3.4-1-4.3c-1.5-1-3.1-1.8-4.7-2.5c-1.8-0.8-3.6-1.6-5-3
		c-1.6-1.6-2.1-3.6-2-5.9c0.2-2.8,1.7-4.6,4.3-5.6c0.6-0.2,1.1-0.4,1.7-0.5c2.6-0.4,5.2-0.4,7.7,0.2c0.6,0.2,1.3,0.3,1.8,0.5
		c0.3,0.1,0.6,0.5,0.6,0.7c-0.1,0.8-0.3,1.5-0.4,2.3c-0.1,1-0.7,0.9-1.4,0.7c-2.1-0.7-4.2-0.8-6.4-0.7c-0.6,0-1.3,0.2-1.8,0.5
		c-2.4,1.2-2.6,4.2-0.2,5.7c1.4,0.9,3,1.5,4.5,2.2c2.1,1,4.2,1.9,5.6,3.8c2.3,2.9,1.9,8.5-2.5,10.6C25,98.5,23,98.9,20.9,98.7z"/>
	<path class="st0" d="M171.5,93.9c-0.2,1.2-0.4,2.3-0.7,3.4c-0.1,0.3-0.7,0.5-1.1,0.7c-3.8,1.1-7.6,1.2-11.2-0.7c-2-1-3.2-2.8-3.8-5
		c-0.6-2.2-0.7-4.5-0.3-6.7c0.5-3.5,2.8-6.8,7.2-7.4c1.9-0.3,3.6-0.2,5.4,0.4c2.4,0.7,3.9,2.4,4.7,4.7c0.7,2,0.4,4.1,0.4,6.2
		c0,0.6-0.5,0.6-0.9,0.6c-2.3,0-4.7,0-7,0c-1.5,0-3,0-4.6,0c-1,0-1.1,0.1-0.8,1.1c0.7,2.8,2.4,3.7,4.7,4.1c2.4,0.3,4.7-0.1,6.9-1
		C170.7,94,171,94,171.5,93.9z M163.2,86.4c1.3,0,2.7,0,4,0c0.7,0,0.8-0.3,0.8-1c-0.3-3-3.6-4.9-6.4-3.8c-1.7,0.7-2.6,2-3.1,3.7
		c-0.2,0.6,0,1,0.7,1C160.6,86.3,161.9,86.4,163.2,86.4z"/>
	<path class="st0" d="M103.5,96.4c-0.2,0.1-0.4,0.2-0.6,0.4c-1.3,1.4-2.9,2-4.7,1.9c-3.7-0.1-6.5-1.8-7.8-5.6
		c-0.8-2.3-0.8-4.6-0.6-6.9c0.3-2.4,1.3-4.6,3.3-6.2c1.4-1.1,3-1.8,4.8-1.9c1-0.1,2-0.3,3-0.2c1.9,0.1,3.7,0.4,5.6,0.7
		c1.1,0.2,1.3,0.5,1.3,1.7c0,5.6,0,11.1,0,16.7c0,1.1-0.1,1.2-1.2,1.2c-0.1,0-0.3,0-0.4,0C104.1,98.2,104.1,98.2,103.5,96.4z
		 M103.4,87.9C103.4,87.9,103.4,87.9,103.4,87.9c0-1.7,0-3.5,0-5.2c0-0.8-0.4-1.2-1.1-1.2c-1,0-2-0.1-3,0c-1.8,0.2-3.4,1-4.4,2.6
		c-1.3,2.2-1.2,4.7-0.7,7.1c0.3,1.2,0.8,2.4,2,3.1c2,1.2,4.1,1.1,6.2,0.1c0.8-0.3,1-0.9,1-1.7C103.4,91.2,103.4,89.5,103.4,87.9z"/>
	<path class="st0" d="M47.2,96.4c-0.3,0.3-0.6,0.6-0.9,0.8c-3.6,2.9-10.3,1.4-12-4.3c-0.9-3.2-1-6.5,0.3-9.7c1.3-3.2,4-4.7,7.3-5.3
		c2.3-0.4,4.5,0,6.7,0.1c0.8,0.1,1.6,0.4,2.4,0.7c0.2,0.1,0.5,0.5,0.5,0.8c0.1,0.7,0,1.3,0,2c0,5.1,0,10.2,0,15.3
		c0,1.1,0,1.1-1.2,1.2c0,0-0.1,0-0.1,0c-0.7,0-1.5,0.2-2-0.1C47.7,97.8,47.6,97,47.2,96.4z M47.4,87.9c0-1.7,0-3.5,0-5.2
		c0-0.8-0.4-1.1-1.1-1.1c-1.1,0-2.1-0.1-3.2,0c-1.9,0.3-3.6,1.1-4.5,2.9c-1,2-1.1,4.2-0.7,6.3c0.3,1.4,0.8,2.7,2,3.6
		c2,1.3,4.1,1.1,6.2,0.2c0.8-0.3,1.1-0.8,1.1-1.7C47.4,91.1,47.4,89.5,47.4,87.9z"/>
	<path class="st0" d="M112.3,88.6c0-2.7,0-5.4,0-8.1c0-1.3,0.1-1.5,1.4-1.8c1.1-0.2,2.2-0.4,3.3-0.6c0.7-0.1,1.3-0.2,2-0.3
		c2.6,0,5.1,0.1,7.5,1.4c1.5,0.8,2.4,2.1,2.5,3.7c0.2,2.7,0.3,5.4,0.3,8c0,2,0,4,0,6c0,0.8-0.3,1.2-1.1,1.1c-0.7,0-1.4,0-2.1,0
		c-0.8,0-1.1-0.3-1.1-1.1c0-3.9,0-7.8,0-11.7c0-1.5-0.6-2.8-2.1-3.4c-0.8-0.3-1.6-0.4-2.4-0.4c-1.1,0-2.1,0.2-3.2,0.2
		c-0.8,0-0.9,0.5-0.9,1.1c0,3.3,0,6.6,0,9.9c0,1.5,0,2.9,0,4.4c0,0.8-0.3,1.1-1,1c-0.6,0-1.3,0-1.9,0c-1.2,0-1.3-0.1-1.3-1.4
		C112.3,94.1,112.3,91.3,112.3,88.6z"/>
	<path class="st0" d="M56.3,88.5c0-2.9,0-5.7,0-8.6c0-0.7,0.2-1,0.9-1.1c1.3-0.2,2.6-0.5,3.9-0.6c1.2-0.1,2.4-0.4,3.6-0.3
		c1.7,0.1,3.4,0.2,5,1c2.2,1,3.4,2.8,3.5,5.1c0.1,4.4,0.1,8.9,0.1,13.3c0,0.6-0.3,0.8-0.9,0.8c-0.8,0-1.6,0-2.3,0c-0.7,0-1-0.3-1-1
		c0-3.7,0-7.3,0-11c0-0.9-0.2-1.8-0.4-2.6c-0.5-1.3-1.7-1.9-3-2c-1.4-0.1-2.9,0.1-4.4,0.1c-0.8,0-0.9,0.5-0.9,1.2c0,4.7,0,9.3,0,14
		c0,1.3,0,1.3-1.3,1.3c-0.7,0-1.3,0-2,0c-0.6,0-0.8-0.2-0.8-0.9C56.3,94.3,56.3,91.4,56.3,88.5z"/>
	<path class="st0" d="M77.6,83.1c0-3.4,0-6.8,0-10.2c0-0.8,0.4-1.2,1.1-1.3c0.7-0.1,1.4-0.2,2.1-0.3c0.6-0.1,0.9,0.2,0.9,0.8
		c0,1.7,0,3.4,0,5.2c0,1.2,0.1,1.2,1.2,1.2c1.5,0,3,0,4.5,0c0.7,0,1,0.3,0.9,0.9c-0.1,0.7-0.1,1.4-0.2,2c-0.1,0.5-0.4,0.6-0.8,0.6
		c-1.4,0-2.8,0-4.2,0c-1.2,0-1.3,0.1-1.3,1.2c0,2.9,0,5.7,0,8.6c0,2.1,1.2,3.3,3.3,3.2c0.8,0,1.5-0.2,2.3-0.3
		c0.9-0.1,1.1,0.1,0.9,0.9c-0.1,0.5-0.1,1.1-0.3,1.5c-0.1,0.4-0.4,0.9-0.7,1c-2.5,0.7-5.1,0.7-7.4-0.8c-1.5-1-2.1-2.5-2.2-4.2
		C77.5,89.8,77.6,86.4,77.6,83.1C77.6,83.1,77.6,83.1,77.6,83.1z"/>
	<path class="st0" d="M186.5,81.5c-1.5,0-2.8,0-4.2,0c-0.3,0-0.6,0-0.9,0c-1.1,0.1-1.3,0.3-1.3,1.4c0,4.7,0,9.3,0,14
		c0,1.3,0,1.3-1.4,1.3c-0.6,0-1.3,0-1.9,0c-0.5,0-0.8-0.2-0.8-0.8c0-1.5-0.2-3-0.2-4.6c0-3.8,0.1-7.7,0.1-11.5c0-2.4,0-2.4,2.2-2.8
		c2.3-0.4,4.6-0.7,7-0.5c0.4,0,0.9,0.1,1.3,0.3c0.2,0.1,0.3,0.4,0.3,0.6C186.7,79.6,186.6,80.5,186.5,81.5z"/>
</g>
</svg>
