<?xml version="1.0" encoding="utf-8"?>
<!-- Generator: Adobe Illustrator 24.0.2, SVG Export Plug-In . SVG Version: 6.00 Build 0)  -->
<svg version="1.1" id="Layer_1" xmlns="http://www.w3.org/2000/svg" xmlns:xlink="http://www.w3.org/1999/xlink" x="0px" y="0px"
	 viewBox="0 0 371 300" style="enable-background:new 0 0 371 300;" xml:space="preserve">
<style type="text/css">
	.st0{fill:#FFFFFF;}
</style>
<path class="st0" d="M137.95,299.97c-14.02,0-28.04,0-42.05,0c-0.34-0.09-0.68-0.24-1.02-0.27c-11.6-1.16-23.03-3.24-34.29-6.26
	c-20.88-5.6-40.45-14.21-58.77-25.66c-0.33-0.21-0.9-0.27-0.88-1c19.87,2.18,39.42,0.66,58.63-4.74
	c19.19-5.4,36.64-14.24,52.44-26.52c-0.61-0.44-1.14-0.36-1.64-0.38c-5.95-0.23-11.79-1.12-17.48-2.87
	c-24.81-7.64-41.69-23.69-50.77-47.98c-0.63-1.69-0.55-1.77,1.21-1.48c9.04,1.5,18.06,1.38,27.05-0.35
	c1.52-0.29,3.09-0.48,4.67-1.22c-0.91-0.57-1.75-0.56-2.52-0.76c-17.04-4.41-31.07-13.49-41.83-27.42
	c-10.39-13.45-15.54-28.77-15.8-45.74c-0.01-0.85-0.14-1.62,1.17-0.91c7.87,4.24,16.25,6.95,25.1,8.2c2.45,0.35,4.92,0.67,7.83,0.58
	c-16.48-11.67-27.19-26.86-31.56-46.17c-4.37-19.31-1.47-37.64,8.33-55.09c4.57,5.5,9.12,10.62,13.94,15.49
	c15.07,15.23,32.01,27.96,50.85,38.17c14.08,7.63,28.83,13.59,44.25,17.92c15.03,4.22,30.33,6.76,45.91,7.66
	c1.13,0.07,1.51-0.03,1.23-1.37c-2.82-13.61-2.38-27.12,2.4-40.2c10.1-27.63,29.71-44.44,58.57-50.36c2.6-0.53,5.25-0.8,7.88-1.2
	c3.71,0,7.42,0,11.13,0c2.27,0.64,4.64,0.62,6.95,1.03c16.33,2.91,30.31,10.24,41.9,22.11c0.63,0.65,1.22,0.76,2.05,0.59
	c13.17-2.75,25.78-7.09,37.77-13.19c2.97-1.51,5.88-3.11,9.15-4.85c-6.03,17.87-16.95,31.47-32.46,41.57
	c14.68-1.67,28.68-5.56,42.2-11.43c0,0.29,0.04,0.4-0.01,0.47c-0.24,0.39-0.49,0.78-0.76,1.16c-9.79,14.15-21.6,26.34-35.45,36.55
	c-0.84,0.62-1.24,1.22-1.14,2.28c0.14,1.54,0.17,3.09,0.19,4.63c0.33,21.11-2.45,41.82-8.29,62.09
	c-11.67,40.52-32.59,75.42-63.76,103.98c-18.54,16.98-39.61,29.95-63.04,39.08c-16.19,6.31-32.92,10.47-50.15,12.69
	C144.06,299.2,141,299.58,137.95,299.97z"/>
</svg>
