<?xml version="1.0" encoding="utf-8"?>
<!-- Generator: Adobe Illustrator 24.0.2, SVG Export Plug-In . SVG Version: 6.00 Build 0)  -->
<svg version="1.1" id="Layer_1" xmlns="http://www.w3.org/2000/svg" xmlns:xlink="http://www.w3.org/1999/xlink" x="0px" y="0px"
	 viewBox="0 0 426 300" style="enable-background:new 0 0 426 300;" xml:space="preserve">
<style type="text/css">
	.st0{fill:#FFFFFF;}
</style>
<path class="st0" d="M426.04,85.2c0,42.92,0,85.85,0,128.77c-0.7,0.3-0.41,0.95-0.47,1.45c-1.2,11.28-2.47,22.54-4.92,33.64
	c-4.04,18.25-14.43,31.4-31.49,39.14c-7.66,3.48-15.95,4.45-24.19,5.45c-16.71,2.03-33.52,2.97-50.32,3.72
	c-32.52,1.45-65.07,2.17-97.62,2.13c-44.67-0.05-89.33-0.86-133.91-4.18c-10.9-0.81-21.83-1.72-32.51-4.13
	c-20.5-4.63-34.29-16.95-40.81-36.95c-3.26-10.03-4.38-20.54-5.54-30.98c-2.45-21.96-3.37-44.02-3.74-66.11
	c-0.27-16.13,0.31-32.26,1.18-48.36c0.98-18.18,2.46-36.3,5.81-54.23c1.85-9.86,5.21-19.02,11.54-26.96
	C29.15,14.92,42.54,8.65,58.41,6.62c18.7-2.39,37.49-3.56,56.3-4.42c22.62-1.03,45.26-1.66,67.91-1.86c0.65-0.01,1.38,0.31,1.95-0.3
	c22.03,0,44.05,0,66.08,0c0.4,0.76,1.11,0.37,1.66,0.38c4.22,0.1,8.45,0.14,12.67,0.23c25.12,0.56,50.24,1.35,75.31,3.16
	c12.7,0.92,25.42,1.78,37.88,4.54c20.79,4.6,34.66,17.1,41.1,37.39c3.51,11.04,4.65,22.58,5.94,34.06
	C425.42,81.61,425.23,83.48,426.04,85.2z M283.2,149.83c-0.63-0.39-1.03-0.65-1.45-0.89c-11.14-6.42-22.28-12.83-33.42-19.25
	c-24.86-14.31-49.72-28.61-74.58-42.91c-1.96-1.13-1.97-1.12-1.97,1.2c0,41.26,0,82.52,0,123.78c0,2.16,0.01,2.16,1.91,1.09
	c0.18-0.1,0.37-0.19,0.55-0.29c25.09-14.45,50.19-28.9,75.28-43.35C260.67,162.78,271.81,156.38,283.2,149.83z"/>
</svg>
